<svg width="230" height="165" viewBox="0 0 230 165" fill="none" xmlns="http://www.w3.org/2000/svg">
<g clip-path="url(#clip0_712_5423)">
<path d="M116.517 46.375C114.466 42.7106 112.036 38.7981 108.23 37.6015C103.823 36.2159 99.2957 38.9685 95.4554 41.6849C83.9707 49.8086 72.9108 58.6123 62.3262 68.0558L62.3378 68.1981C70.5783 67.5841 78.8188 66.9702 87.0592 66.3562C93.013 65.9126 99.1713 65.4079 104.433 62.365C106.429 61.2104 108.376 59.668 110.638 59.5605C113.449 59.427 115.9 61.5479 117.826 63.7637C129.219 76.871 132.516 96.9152 145.298 108.431C137.238 86.9561 127.614 66.2057 116.517 46.375Z" fill="#F2F2F2"/>
<path d="M186.548 157.549C185.288 155.83 184.774 155.427 183.531 153.693C173.412 139.553 163.9 124.936 154.997 109.841C148.95 99.5893 143.202 89.1406 137.754 78.495C135.161 73.434 132.638 68.3333 130.187 63.1928C128.285 59.207 126.425 55.1974 124.608 51.164C124.088 50.0119 123.583 48.8546 123.081 47.6946C121.897 44.9668 120.735 42.2257 119.487 39.535C118.065 36.4682 116.334 33.2531 113.724 31.1927C112.536 30.2165 111.115 29.6258 109.627 29.4898C107.502 29.3415 105.541 30.2896 103.698 31.3251C90.2104 38.9232 77.5835 48.4494 66.1627 59.2891C54.7126 70.1532 44.4781 82.427 35.6678 95.8604C35.3983 96.2762 34.7609 95.8789 35.033 95.4605C36.1042 93.8238 37.1967 92.2047 38.3105 90.6034C52.1588 70.7052 69.139 53.5938 88.4748 40.0514C91.7279 37.7738 95.0421 35.6031 98.4175 33.5391C100.119 32.4983 101.827 31.4707 103.565 30.5067C105.269 29.5613 107.078 28.7111 109.024 28.6794C115.648 28.5681 119.078 36.6721 121.433 42.1251C122.174 43.8412 122.923 45.5521 123.681 47.2576C126.547 53.7329 129.523 60.149 132.609 66.5059C134.514 70.4308 136.46 74.3327 138.448 78.2117C144.635 90.2908 151.211 102.125 158.177 113.716C167.403 129.068 176.557 142.63 187.068 156.987C187.357 157.384 186.84 157.951 186.548 157.549Z" fill="#E4E4E4"/>
<path d="M65.5088 55.2876C65.124 54.8242 64.7415 54.3607 64.3542 53.8973C61.2998 50.2478 58.0225 46.6407 53.8281 44.5485C51.8282 43.5194 49.6451 42.9727 47.4301 42.9463C45.1405 42.9542 42.9025 43.6031 40.787 44.5115C39.7868 44.9431 38.8087 45.4331 37.8454 45.9548C36.7447 46.5533 35.6636 47.1916 34.5875 47.8352C32.5676 49.0428 30.5738 50.3034 28.6063 51.617C24.6914 54.2309 20.8992 57.0444 17.2295 60.0573C15.3272 61.6199 13.4642 63.2336 11.6404 64.8985C9.94406 66.4452 8.28206 68.0333 6.65437 69.6629C6.30629 70.0099 5.78657 69.4484 6.13465 69.1015C6.56363 68.6698 6.99753 68.2408 7.43143 67.817C8.6571 66.62 9.9024 65.4459 11.1673 64.2947C13.474 62.1919 15.8403 60.1703 18.2664 58.23C22.0391 55.2108 25.9416 52.3965 29.974 49.787C31.9891 48.484 34.0319 47.2357 36.1024 46.0422C36.7276 45.682 37.36 45.3298 37.9998 44.9961C39.4515 44.205 40.9599 43.5416 42.5103 43.0125C44.7065 42.2449 47.0301 41.9983 49.3226 42.2895C51.536 42.6373 53.6686 43.4344 55.6079 44.6386C59.7261 47.1254 62.9201 50.9708 66.0285 54.7235C66.3423 55.1049 65.825 55.669 65.5088 55.2876Z" fill="#E4E4E4"/>
<path d="M149.889 93.1054L159.757 89.206L164.657 87.2699C166.253 86.6393 167.845 85.9215 169.494 85.47C170.928 85.0276 172.45 85.0485 173.872 85.5302C175.141 86.0376 176.303 86.8153 177.287 87.8173C178.294 88.8183 179.23 89.8985 180.088 91.0489C181.155 92.434 182.206 93.8335 183.262 95.2284C187.619 100.985 191.948 106.767 196.248 112.574C200.548 118.381 204.819 124.212 209.062 130.068C213.314 135.938 217.538 141.833 221.732 147.753C222.246 148.478 222.76 149.203 223.273 149.929C223.556 150.33 224.195 149.935 223.908 149.528C219.682 143.549 215.427 137.595 211.143 131.665C206.848 125.721 202.524 119.802 198.17 113.908C193.816 108.014 189.432 102.146 185.019 96.3034C183.92 94.8478 182.819 93.3939 181.716 91.9415C180.785 90.7164 179.866 89.4781 178.845 88.3378C176.972 86.2448 174.631 84.395 171.83 84.3449C170.183 84.3154 168.589 84.88 167.058 85.4781C165.409 86.123 163.763 86.7798 162.115 87.4309L152.178 91.3576L149.693 92.3393C149.253 92.5135 149.443 93.2816 149.889 93.1054Z" fill="#E4E4E4"/>
<path d="M52.5298 49.1407C47.5149 46.3562 41.0927 46.9016 36.4844 50.3804C45.2744 52.0188 53.9682 54.211 62.5214 56.9457C58.9696 54.697 56.1912 51.1738 52.5298 49.1407Z" fill="#F2F2F2"/>
<path d="M36.4342 50.3706L35.4688 51.2184C35.7953 50.9217 36.1348 50.6435 36.4835 50.3802C36.4671 50.3771 36.4506 50.3737 36.4342 50.3706Z" fill="#F2F2F2"/>
<path d="M176.917 93.1443C175.946 91.8668 174.895 90.5291 173.442 90.0103L172.086 90.0681C182.412 109.782 196.359 127.007 213.07 140.688C201.019 124.84 188.968 108.992 176.917 93.1443Z" fill="#F2F2F2"/>
<path d="M92.5617 82.606C93.1895 85.07 94.6037 87.2148 96.5543 88.6607C97.3084 89.2155 98.2006 89.7476 98.4586 90.693C98.5943 91.2957 98.5107 91.9316 98.225 92.4697C97.9398 93.0008 97.5928 93.4902 97.1925 93.9261L97.1559 94.074C95.2846 92.8759 93.5042 91.3603 92.4705 89.2925C91.4367 87.2247 91.2924 84.5145 92.5617 82.606Z" fill="#F2F2F2"/>
<path d="M154.864 141.251C155.492 143.715 156.906 145.86 158.857 147.306C159.611 147.86 160.503 148.393 160.761 149.338C160.897 149.941 160.813 150.577 160.528 151.115C160.243 151.646 159.896 152.135 159.495 152.571L159.459 152.719C157.587 151.521 155.807 150.005 154.773 147.937C153.739 145.87 153.595 143.16 154.864 141.251Z" fill="#F2F2F2"/>
<path d="M30.5246 137.207C31.1523 139.671 32.5666 141.815 34.5172 143.261C35.2713 143.816 36.1635 144.348 36.4215 145.294C36.5572 145.896 36.4736 146.532 36.1879 147.07C35.9027 147.601 35.5557 148.091 35.1554 148.527L35.1188 148.675C33.2475 147.476 31.4671 145.961 30.4334 143.893C29.3996 141.825 29.2553 139.115 30.5246 137.207Z" fill="#F2F2F2"/>
<path d="M173.61 29.467C181.142 29.467 187.248 22.8706 187.248 14.7335C187.248 6.59641 181.142 0 173.61 0C166.078 0 159.973 6.59641 159.973 14.7335C159.973 22.8706 166.078 29.467 173.61 29.467Z" fill="#D11A22"/>
<path d="M198.22 3.4293C191.61 2.46413 184.065 6.32361 182.352 13.2873C181.92 12.0492 181.135 10.9913 180.111 10.2667C179.086 9.54198 177.875 9.18798 176.652 9.25578C175.429 9.32359 174.257 9.80969 173.306 10.6439C172.356 11.478 171.675 12.6171 171.363 13.8965L172.12 14.482C186.284 17.791 200.945 17.7194 215.08 14.2721C210.483 9.05217 204.829 4.39445 198.22 3.4293Z" fill="#F0F0F0"/>
<path d="M169.876 23.0738C163.267 22.1087 155.721 25.9681 154.008 32.9318C153.576 31.6937 152.791 30.6359 151.767 29.9112C150.742 29.1865 149.531 28.8325 148.308 28.9003C147.085 28.9681 145.913 29.4542 144.963 30.2884C144.012 31.1226 143.332 32.2616 143.02 33.541L143.776 34.1265C157.94 37.4356 172.601 37.3639 186.737 33.9167C182.139 28.6967 176.485 24.039 169.876 23.0738Z" fill="#F0F0F0"/>
<path d="M227.562 26.7883C227.534 26.7883 227.507 26.7838 227.481 26.7747C156.778 2.61814 94.4639 5.77704 54.6384 12.6808C49.2185 13.62 43.7842 14.7048 38.4863 15.9052C37.1338 16.2113 35.7306 16.5394 34.3158 16.881C32.6261 17.2876 30.9589 17.7063 29.3602 18.1249C28.6698 18.3015 27.9928 18.4795 27.3294 18.659C26.3244 18.927 25.3047 19.2063 24.2116 19.5132C22.9901 19.8535 21.7491 20.2103 20.5221 20.574C20.5177 20.5757 20.5131 20.5771 20.5084 20.5782L20.5086 20.5785C19.1227 20.9873 17.7442 21.408 16.4111 21.828C15.6896 22.0532 14.9929 22.2752 14.3256 22.4944C14.251 22.5167 14.1849 22.5381 14.118 22.5601L13.9746 22.6073C13.8916 22.6346 13.8096 22.6614 13.7276 22.6868L13.7224 22.6885L13.7225 22.6888L13.5055 22.7616C13.2467 22.8462 12.9942 22.9289 12.7458 23.0113C6.1825 25.1971 2.57441 26.7522 2.53877 26.7674C2.50617 26.7815 2.47133 26.7886 2.43621 26.7881C2.4011 26.7877 2.36641 26.7798 2.33412 26.7649C2.30184 26.75 2.27258 26.7283 2.24804 26.7012C2.22349 26.6741 2.20414 26.642 2.19107 26.6068C2.178 26.5715 2.17149 26.5339 2.17189 26.496C2.1723 26.458 2.17961 26.4205 2.19342 26.3857C2.20723 26.3508 2.22726 26.3192 2.25237 26.2927C2.27749 26.2661 2.30719 26.2452 2.33979 26.2311C2.37569 26.2159 6.00141 24.6529 12.5886 22.4589C12.8379 22.3762 13.0911 22.2936 13.3506 22.2086L13.5522 22.1409C13.5591 22.1381 13.5661 22.1359 13.5731 22.1336C13.6547 22.1085 13.7362 22.0817 13.819 22.0546L13.9626 22.0075C14.0341 21.9841 14.1046 21.9609 14.1768 21.9395C14.8396 21.7217 15.5387 21.4991 16.262 21.2731C17.5956 20.8528 18.9754 20.4321 20.3623 20.0228C20.3666 20.0211 20.3711 20.0199 20.3754 20.0185C21.6066 19.6537 22.8522 19.2952 24.0776 18.9538C25.1724 18.6466 26.1941 18.3667 27.2008 18.0981C27.8671 17.919 28.5453 17.7406 29.2355 17.5629C30.836 17.1437 32.5066 16.7245 34.1993 16.3171C35.6163 15.9752 37.0219 15.6462 38.3766 15.3398C43.6828 14.1374 49.1256 13.051 54.5536 12.1104C94.4362 5.19673 156.84 2.03273 227.642 26.224C227.703 26.2448 227.755 26.2884 227.789 26.347C227.822 26.4056 227.836 26.4753 227.826 26.5434C227.816 26.6116 227.784 26.6738 227.736 26.7187C227.687 26.7636 227.626 26.7883 227.562 26.7883Z" fill="#CCCCCC"/>
<path d="M70.3228 121.288C70.2301 120.996 70.0743 120.731 69.8682 120.517C69.7921 120.441 69.7097 120.372 69.6222 120.312C68.9242 119.809 67.8814 119.696 67.2182 120.312C67.1514 120.374 67.0897 120.443 67.0337 120.517C66.8358 120.78 66.6326 121.037 66.424 121.288C66.0818 121.71 65.7315 122.117 65.3651 122.513C65.2608 122.623 65.1566 122.736 65.0496 122.845C64.9881 122.912 64.9266 122.975 64.8651 123.039C64.6298 123.282 64.3891 123.516 64.1458 123.747C64.0174 123.871 63.8891 123.992 63.758 124.111C63.5628 124.287 63.3676 124.463 63.1698 124.634C63.1511 124.648 63.1323 124.663 63.1136 124.68C63.1083 124.683 63.1056 124.689 63.1002 124.691C63.0976 124.691 63.0949 124.691 63.0922 124.697C63.085 124.7 63.0786 124.705 63.0735 124.712C63.0147 124.755 62.9746 124.784 62.9452 124.81C62.9559 124.804 62.9665 124.795 62.9772 124.79C62.9291 124.83 62.8783 124.871 62.8302 124.911C62.3622 125.284 61.8836 125.642 61.3942 125.977C60.1835 126.814 58.9119 127.544 57.5918 128.158C57.5035 128.196 57.4126 128.236 57.3217 128.274C53.8654 129.803 50.1162 130.4 46.3984 130.013C46.0187 129.981 45.6389 129.938 45.2592 129.883C44.8207 129.813 44.3848 129.73 43.9517 129.634C42.3025 129.279 40.6888 128.753 39.1331 128.063C37.187 127.1 35.336 125.927 33.6086 124.561C33.3412 124.356 33.0711 124.151 32.801 123.952C33.1085 123.137 33.4107 122.323 33.7049 121.502C33.8519 121.106 33.9936 120.71 34.1327 120.312C35.2264 117.241 36.2532 114.141 37.2372 111.03C38.2319 107.878 39.1705 104.708 40.0529 101.519C40.1439 101.196 40.2321 100.872 40.3177 100.549C40.7803 98.8645 41.2242 97.1764 41.6493 95.4845C41.6894 95.3198 41.7322 95.158 41.7697 94.9934C41.8927 94.508 42.013 94.0227 42.1307 93.5373C42.3981 92.4424 41.7937 91.1338 40.7295 90.8709C40.2171 90.7289 39.6737 90.8074 39.2138 91.0898C38.7539 91.3722 38.4134 91.8364 38.264 92.3847C38.1491 92.8527 38.0341 93.3178 37.9164 93.7858C37.3522 96.0478 36.7586 98.3021 36.1355 100.549C36.0446 100.872 35.9537 101.196 35.8628 101.519C34.4883 106.413 32.9793 111.258 31.3357 116.054C31.1378 116.634 30.9372 117.213 30.734 117.79C30.6351 118.073 30.5361 118.356 30.4345 118.639C30.2393 119.197 30.0388 119.754 29.8382 120.312C29.7232 120.638 29.6056 120.965 29.4879 121.288C29.4104 121.493 29.3355 121.699 29.2606 121.901C28.4982 121.605 27.7083 121.4 26.9048 121.288L26.7765 121.271C26.1536 121.19 25.5236 121.196 24.902 121.288C23.9717 121.406 23.0767 121.742 22.2801 122.274C21.4835 122.806 20.8048 123.521 20.292 124.368C19.0165 126.537 19.0326 129.64 20.8215 131.483C22.6639 133.381 25.4529 133.367 27.6215 132.18C28.7707 131.508 29.7397 130.527 30.4345 129.331C30.7007 128.898 30.9453 128.449 31.1672 127.988C31.2234 128.028 31.2795 128.069 31.3357 128.112C31.5496 128.274 31.7635 128.438 31.9748 128.6C33.2056 129.564 34.5027 130.424 35.8548 131.174C38.7619 132.736 41.8913 133.758 45.1122 134.199C45.1844 134.208 45.2539 134.219 45.3261 134.228C45.6817 134.277 46.0401 134.314 46.3984 134.346C51.5384 134.765 56.6847 133.628 61.2605 131.064C61.6483 130.848 62.0324 130.62 62.413 130.383C63.004 130.013 63.5816 129.62 64.1458 129.204C64.4533 128.979 64.7528 128.75 65.0496 128.511C66.3466 127.478 67.5557 126.323 68.6622 125.058C69.082 124.582 69.484 124.09 69.8682 123.582C70.2315 123.167 70.4408 122.622 70.4565 122.051C70.4544 121.79 70.4091 121.532 70.3228 121.288ZM26.0438 128.17C26.1 128.126 26.1561 128.08 26.2096 128.034C26.1936 128.077 26.116 128.126 26.0438 128.17ZM26.9022 127.237C26.8407 127.312 26.7845 127.387 26.723 127.462C26.5359 127.688 26.3349 127.9 26.1214 128.097C26.0919 128.126 26.0599 128.155 26.0278 128.181C26.0274 128.181 26.0271 128.181 26.0267 128.181C26.0264 128.182 26.0261 128.182 26.0259 128.182C26.0256 128.182 26.0254 128.183 26.0253 128.183C26.0251 128.183 26.0251 128.184 26.0251 128.184C25.9865 128.203 25.949 128.224 25.9128 128.248C25.7978 128.323 25.6801 128.392 25.5598 128.456C25.3242 128.549 25.0818 128.622 24.8352 128.672C24.6456 128.687 24.4554 128.689 24.2656 128.678H24.2602C24.1293 128.647 23.9999 128.608 23.8725 128.563C23.8083 128.528 23.7468 128.487 23.6853 128.447C23.6613 128.424 23.6399 128.401 23.6265 128.386C23.6004 128.361 23.5762 128.333 23.5543 128.303C23.5543 128.302 23.5543 128.302 23.5541 128.301C23.554 128.301 23.5538 128.301 23.5536 128.301C23.5533 128.3 23.553 128.3 23.5527 128.3C23.5523 128.3 23.552 128.3 23.5516 128.3C23.5222 128.242 23.4901 128.184 23.4607 128.126C23.4592 128.125 23.4583 128.123 23.4581 128.121C23.4367 128.048 23.4179 127.973 23.4019 127.898C23.3961 127.766 23.397 127.634 23.4046 127.502C23.4405 127.318 23.4887 127.136 23.549 126.959C23.6031 126.834 23.6647 126.712 23.7335 126.595C23.7388 126.584 23.7656 126.537 23.795 126.485C23.7977 126.483 23.7977 126.483 23.7977 126.48C23.8378 126.431 23.8779 126.379 23.9207 126.332C23.9929 126.246 24.0704 126.171 24.148 126.093C24.2988 125.986 24.455 125.889 24.6159 125.801C24.8712 125.703 25.1331 125.627 25.3994 125.573C25.792 125.539 26.1866 125.543 26.5786 125.584C26.9499 125.654 27.3162 125.751 27.675 125.876C27.4576 126.332 27.21 126.77 26.9343 127.187C26.9236 127.205 26.9129 127.222 26.9022 127.237ZM23.9287 126.286C23.9051 126.327 23.8773 126.365 23.8458 126.399C23.867 126.356 23.8951 126.318 23.9287 126.286Z" fill="#3F3D56"/>
<path d="M62.2858 91.7839C62.2617 92.691 62.2376 93.5981 62.2136 94.5052C62.1628 96.5188 62.1102 98.5334 62.0558 100.549C61.9996 102.817 61.9408 105.083 61.8793 107.349C61.8499 108.519 61.8196 109.689 61.7884 110.859C61.7055 114.011 61.6235 117.162 61.5424 120.312C61.5344 120.638 61.5237 120.962 61.5157 121.288C61.4755 122.851 61.4354 124.414 61.3953 125.977C61.3499 127.673 61.3053 129.369 61.2616 131.065C61.2295 132.336 61.1966 133.608 61.1627 134.881C60.922 144.105 60.6814 153.329 60.4407 162.554C60.4305 163.125 60.216 163.67 59.8421 164.074C59.4681 164.478 58.9639 164.709 58.4352 164.72C57.9046 164.716 57.397 164.486 57.0218 164.081C56.6466 163.675 56.434 163.127 56.4297 162.554C56.5634 157.365 56.6989 152.177 56.8361 146.988C56.9565 142.297 57.0786 137.605 57.2025 132.913C57.2426 131.368 57.2827 129.821 57.3228 128.274C57.3843 125.945 57.4449 123.617 57.5046 121.288C57.5127 120.962 57.5234 120.638 57.5314 120.312C57.5367 120.026 57.5447 119.743 57.5528 119.457C57.6704 114.936 57.7881 110.414 57.9057 105.89C57.9539 104.111 58.0002 102.33 58.0448 100.549C58.0983 98.518 58.1517 96.488 58.2052 94.459C58.2293 93.5663 58.2507 92.6766 58.2748 91.7839C58.2849 91.2127 58.4995 90.6679 58.8734 90.2639C59.2473 89.86 59.7515 89.6282 60.2803 89.6172C60.8108 89.6218 61.3185 89.8516 61.6936 90.2569C62.0688 90.6622 62.2815 91.2107 62.2858 91.7839Z" fill="#3F3D56"/>
<path d="M172.301 92.3851C170.198 100.988 167.685 109.468 164.771 117.791C163.967 120.086 163.144 122.377 162.265 124.641L162.467 124.123C162.074 125.201 161.573 126.229 160.972 127.189C160.931 127.251 160.89 127.312 160.847 127.373C161.055 127.086 161.095 127.029 160.966 127.203C160.898 127.289 160.831 127.377 160.761 127.461C160.573 127.688 160.373 127.9 160.159 128.098C160.106 128.147 160.051 128.196 159.996 128.243L160.246 128.033C160.217 128.107 160.013 128.205 159.949 128.247C159.743 128.382 159.528 128.499 159.306 128.6L159.785 128.381C159.421 128.539 159.042 128.652 158.654 128.716L159.187 128.639C158.806 128.696 158.42 128.7 158.038 128.652L158.571 128.73C158.258 128.683 157.953 128.594 157.661 128.465L158.14 128.683C157.984 128.61 157.834 128.523 157.691 128.424C157.618 128.373 157.395 128.191 157.687 128.431C157.99 128.682 157.726 128.453 157.663 128.386C157.611 128.331 157.564 128.271 157.514 128.214C157.278 127.953 157.78 128.664 157.62 128.359C157.534 128.205 157.456 128.048 157.385 127.886L157.587 128.403C157.495 128.157 157.43 127.9 157.392 127.637L157.464 128.213C157.426 127.887 157.426 127.556 157.463 127.23L157.392 127.806C157.441 127.441 157.53 127.084 157.658 126.742L157.455 127.26C157.544 127.03 157.65 126.808 157.77 126.596C157.826 126.486 157.891 126.383 157.965 126.287C157.978 126.291 157.626 126.724 157.813 126.505C157.862 126.448 157.908 126.388 157.957 126.331C158.036 126.241 158.121 126.158 158.205 126.072C158.484 125.785 157.814 126.351 158.136 126.124C158.37 125.958 158.616 125.813 158.871 125.691L158.392 125.909C158.82 125.719 159.269 125.589 159.728 125.522L159.195 125.599C159.769 125.528 160.35 125.535 160.922 125.621L160.389 125.544C161.114 125.663 161.823 125.878 162.499 126.185L162.02 125.967C163.462 126.635 164.738 127.628 166.012 128.601C167.243 129.564 168.539 130.424 169.891 131.174C172.798 132.736 175.928 133.759 179.149 134.2C183.769 134.811 188.456 134.159 192.782 132.304C197.108 130.449 200.933 127.45 203.907 123.582C204.269 123.167 204.478 122.622 204.494 122.05C204.49 121.477 204.279 120.927 203.907 120.518C203.171 119.789 201.781 119.583 201.07 120.518C200.397 121.406 199.673 122.249 198.903 123.039C198.543 123.408 198.174 123.765 197.795 124.111C197.579 124.309 197.359 124.502 197.137 124.692C197.032 124.782 196.704 125.021 197.207 124.635C197.092 124.724 196.981 124.82 196.868 124.911C195.183 126.252 193.358 127.374 191.431 128.252L191.91 128.034C189.841 128.971 187.668 129.614 185.446 129.947L185.979 129.869C183.694 130.194 181.378 130.19 179.093 129.858L179.626 129.936C177.342 129.597 175.107 128.939 172.979 127.98L173.458 128.198C171.405 127.217 169.456 125.997 167.646 124.561C166.704 123.807 165.711 123.132 164.674 122.54C163.467 121.874 162.16 121.445 160.814 121.272C158.29 120.952 155.718 122.014 154.33 124.369C153.053 126.538 153.07 129.64 154.858 131.483C156.7 133.382 159.489 133.366 161.66 132.178C163.75 131.035 165.005 128.658 165.888 126.417C167.876 121.375 169.635 116.216 171.274 111.03C172.895 105.9 174.366 100.718 175.686 95.4839C175.849 94.8357 176.01 94.1868 176.169 93.5372C176.436 92.4426 175.832 91.1336 174.768 90.8719C174.255 90.7293 173.712 90.8075 173.251 91.0898C172.791 91.3721 172.45 91.8366 172.301 92.3851Z" fill="#3F3D56"/>
<path d="M192.313 91.7839L191.591 119.458L190.873 146.987L190.467 162.554C190.471 163.127 190.684 163.675 191.059 164.081C191.434 164.486 191.942 164.716 192.472 164.721C193.001 164.71 193.505 164.478 193.879 164.074C194.253 163.67 194.468 163.125 194.478 162.554L195.2 134.88L195.918 107.35L196.324 91.7839C196.319 91.2107 196.107 90.6625 195.731 90.2572C195.356 89.8519 194.849 89.6221 194.318 89.6172C193.79 89.6282 193.285 89.86 192.912 90.264C192.538 90.668 192.323 91.2127 192.313 91.7839Z" fill="#3F3D56"/>
<path opacity="0.2" d="M122.895 154.828H123.517V124.193H138.045V123.522H123.517V110.596H134.736C134.572 110.37 134.403 110.146 134.229 109.926H123.517V101.389C123.311 101.294 123.104 101.202 122.895 101.116V109.926H110.687V98.9873C110.478 98.9977 110.272 99.0132 110.065 99.0322V109.926H100.326V101.765C100.117 101.865 99.9106 101.97 99.7062 102.08V109.926H91.5195V110.596H99.7062V123.522H91.5195V124.193H99.7062V154.828H100.326V124.193C101.605 124.193 102.871 124.465 104.053 124.993C105.235 125.522 106.308 126.297 107.213 127.274C108.117 128.251 108.834 129.411 109.324 130.688C109.813 131.964 110.065 133.333 110.065 134.714V154.828H110.687V124.193H122.895V154.828ZM100.326 123.522V110.596H110.065V123.522H100.326ZM110.687 123.522V110.596H110.932C112.503 110.596 114.058 110.93 115.51 111.58C116.961 112.229 118.28 113.182 119.391 114.382C120.502 115.582 121.383 117.007 121.984 118.575C122.585 120.144 122.895 121.824 122.895 123.522H110.687Z" fill="black"/>
<path d="M119.091 145.642C118.307 149.42 116.429 152.83 113.73 155.377C113.532 155.562 113.334 155.741 113.128 155.918C112.628 155.967 112.132 156.017 111.639 156.068C111.23 156.108 110.826 156.152 110.425 156.192L110.353 156.201L110.302 155.727L110.099 153.809C109.31 152.418 108.822 150.854 108.669 149.232C108.516 147.609 108.703 145.971 109.216 144.437C109.922 142.38 111.2 140.563 112.457 138.76C114.193 136.27 115.88 133.809 115.941 130.772C116.795 131.953 117.505 133.247 118.054 134.623C117.536 134.887 117.071 135.257 116.685 135.712C116.575 135.842 116.465 136.025 116.54 136.181C116.604 136.313 116.765 136.345 116.904 136.362C117.238 136.4 117.575 136.438 117.909 136.475C118.177 136.507 118.444 136.536 118.712 136.568C119.035 137.715 119.255 138.893 119.367 140.086C119.547 141.942 119.454 143.817 119.091 145.642Z" fill="#3F3D56"/>
<path d="M127.97 138.07C126.392 139.309 125.47 141.092 124.753 143.056C124.019 143.31 123.358 143.766 122.836 144.379C122.726 144.509 122.617 144.691 122.692 144.847C122.756 144.98 122.916 145.012 123.055 145.029C123.389 145.067 123.726 145.105 124.061 145.142C123.344 147.465 122.686 149.868 121.419 151.83C120.576 153.125 119.477 154.202 118.202 154.982C117.854 155.196 117.495 155.388 117.127 155.557C115.769 155.669 114.436 155.79 113.129 155.918C112.629 155.967 112.133 156.017 111.64 156.068C111.231 156.108 110.827 156.152 110.426 156.192C110.423 156.033 110.423 155.874 110.426 155.716C110.51 151.483 111.952 147.413 114.504 144.2C114.624 144.05 114.747 143.903 114.873 143.755C116.166 142.263 117.686 141.022 119.368 140.086C122.018 138.598 124.987 137.902 127.97 138.07Z" fill="#D11A22"/>
<path d="M112.101 154.586L111.794 155.568L111.639 156.068C111.23 156.108 110.826 156.152 110.425 156.192L110.353 156.201C109.909 156.25 109.467 156.299 109.026 156.348C108.911 156.204 108.796 156.056 108.684 155.906C105.893 152.255 104.553 147.558 104.957 142.842C105.362 138.127 107.477 133.776 110.842 130.741C110.489 132.737 110.901 134.649 111.577 136.547C111.505 136.579 111.436 136.611 111.369 136.646C110.851 136.909 110.386 137.279 110 137.735C109.89 137.865 109.78 138.047 109.855 138.203C109.919 138.336 110.08 138.367 110.219 138.385C110.553 138.422 110.89 138.46 111.224 138.497C111.492 138.529 111.759 138.558 112.027 138.59C112.152 138.604 112.278 138.619 112.404 138.633C112.422 138.677 112.438 138.717 112.457 138.76C113.219 140.546 114.04 142.34 114.503 144.2C114.619 144.667 114.71 145.141 114.775 145.619C114.981 147.234 114.848 148.879 114.385 150.432C113.922 151.984 113.142 153.404 112.101 154.586Z" fill="#D11A22"/>
<path d="M139.019 112.685C136.717 107.834 133.15 103.752 128.956 100.753C124.748 97.7576 119.919 95.9335 114.901 95.4431C114.243 95.3785 113.583 95.3407 112.922 95.3296C112.141 95.317 100.39 98.9788 96.4537 101.969C92.5194 104.923 89.283 108.834 87.0056 113.388C84.7322 117.967 83.6139 123.111 83.7632 128.304C83.9581 133.529 85.306 138.628 87.6947 143.175C90.0508 147.708 93.3962 151.551 97.4399 154.369C101.541 157.196 105.661 164.692 110.504 164.957C115.383 165.224 120.947 158.152 125.397 156.005C129.846 153.84 133.693 150.453 136.554 146.181C139.334 141.995 141.132 137.143 141.795 132.041C142.483 126.817 142.162 121.429 140.511 116.436C140.087 115.153 139.589 113.9 139.019 112.685C138.543 111.673 137.148 111.3 136.275 111.908C135.825 112.207 135.499 112.682 135.365 113.234C135.231 113.786 135.299 114.373 135.555 114.872C135.835 115.467 136.095 116.072 136.335 116.686L136.133 116.168C137.042 118.53 137.66 121.01 137.972 123.546L137.9 122.97C138.231 125.721 138.225 128.507 137.882 131.256L137.954 130.68C137.607 133.429 136.928 136.117 135.934 138.675L136.136 138.157C135.624 139.463 135.028 140.727 134.352 141.941C134.009 142.555 133.645 143.154 133.261 143.739C133.092 143.995 132.918 144.248 132.742 144.499C132.513 144.827 133.054 144.07 132.818 144.392C132.778 144.447 132.737 144.502 132.697 144.557C132.576 144.721 132.452 144.883 132.328 145.044C131.494 146.119 130.584 147.122 129.606 148.044C129.363 148.274 129.115 148.498 128.864 148.717C128.738 148.827 128.614 148.941 128.484 149.042C128.489 149.039 128.906 148.696 128.659 148.895C128.581 148.957 128.504 149.021 128.426 149.083C127.908 149.498 127.375 149.892 126.829 150.265C125.571 151.121 124.252 151.866 122.883 152.493L123.362 152.275C121.002 153.349 118.521 154.082 115.983 154.457L116.516 154.379C113.98 154.75 111.409 154.754 108.871 154.394L109.404 154.471C107.098 154.137 104.842 153.478 102.694 152.511L103.173 152.73C101.929 152.162 100.729 151.487 99.5855 150.71C99.0196 150.325 98.4684 149.916 97.932 149.483C97.8555 149.421 97.7796 149.359 97.7033 149.297C97.4585 149.097 97.8792 149.444 97.8826 149.446C97.7402 149.336 97.6032 149.218 97.4721 149.092C97.213 148.864 96.9579 148.631 96.707 148.393C95.7027 147.437 94.7649 146.403 93.9011 145.299C93.6848 145.023 93.4732 144.742 93.2663 144.458C93.1766 144.335 93.0132 144.085 93.3744 144.611C93.3268 144.542 93.2775 144.474 93.2295 144.405C93.1143 144.24 93.0006 144.073 92.8884 143.906C92.4957 143.319 92.1224 142.717 91.7686 142.101C90.969 140.707 90.2711 139.248 89.6814 137.737L89.8836 138.254C88.9186 135.774 88.2587 133.167 87.9207 130.501L87.9924 131.077C87.6875 128.62 87.6832 126.13 87.9794 123.671L87.9078 124.247C88.2116 121.866 88.8045 119.539 89.6712 117.326L89.469 117.843C90.0143 116.458 90.6576 115.119 91.393 113.84C91.7612 113.2 92.1514 112.576 92.5636 111.967C92.6573 111.829 92.752 111.691 92.8477 111.555C92.9343 111.431 93.1726 111.123 92.7661 111.667C92.8059 111.613 92.8443 111.559 92.8836 111.505C93.1098 111.195 93.3415 110.89 93.5787 110.591C94.4766 109.455 95.4492 108.391 96.4889 107.407C96.7517 107.158 97.0186 106.914 97.2897 106.676C97.4128 106.568 97.5368 106.461 97.6616 106.355C97.7115 106.312 97.7621 106.271 97.8118 106.228C97.2777 106.687 97.6634 106.353 97.7846 106.255C98.3433 105.802 98.9169 105.373 99.5054 104.966C100.814 104.062 102.19 103.278 103.62 102.624L103.141 102.842C105.216 101.901 114.409 99.6788 116.081 99.9214L115.548 99.844C118.006 100.215 120.408 100.932 122.693 101.977L122.214 101.758C123.372 102.289 124.497 102.9 125.583 103.587C126.126 103.93 126.658 104.293 127.179 104.674C127.426 104.854 127.67 105.038 127.911 105.227C128.032 105.321 128.152 105.416 128.271 105.513C128.337 105.566 128.403 105.62 128.469 105.674C128.747 105.899 128.087 105.348 128.378 105.597C129.353 106.424 130.279 107.317 131.15 108.27C131.578 108.741 131.992 109.227 132.39 109.727C132.595 109.984 132.795 110.245 132.991 110.51C133.088 110.641 133.42 111.117 133.014 110.534C133.113 110.676 133.213 110.818 133.312 110.961C134.156 112.197 134.907 113.505 135.555 114.872C136.035 115.883 137.424 116.26 138.299 115.65C138.749 115.351 139.075 114.875 139.209 114.323C139.343 113.771 139.275 113.184 139.019 112.685Z" fill="#3F3D56"/>
<path d="M115.651 148.044C115.444 148.055 115.239 147.996 115.063 147.876C114.888 147.756 114.752 147.581 114.672 147.375C114.592 147.168 114.572 146.94 114.617 146.721C114.661 146.503 114.766 146.304 114.918 146.152C114.944 146.042 114.962 145.964 114.987 145.854C114.978 145.831 114.969 145.807 114.96 145.783C114.029 143.386 108.092 150.068 107.835 152.321C107.722 153.317 107.77 154.326 107.976 155.305C106.053 150.772 105.054 145.845 105.047 140.859C105.047 139.608 105.111 138.358 105.24 137.114C105.347 136.095 105.494 135.083 105.683 134.078C106.714 128.625 108.927 123.515 112.141 119.166C113.979 119.277 115.59 118.975 115.746 115.126C115.773 114.441 116.243 113.849 116.347 113.174C116.171 113.199 115.993 113.215 115.818 113.227C115.763 113.23 115.705 113.233 115.651 113.236L115.63 113.237C115.437 113.247 115.246 113.196 115.079 113.09C114.913 112.985 114.778 112.83 114.691 112.644C114.604 112.457 114.569 112.248 114.59 112.041C114.61 111.833 114.686 111.637 114.808 111.475C114.884 111.374 114.959 111.273 115.035 111.173C115.15 111.017 115.268 110.865 115.383 110.71C115.397 110.695 115.409 110.679 115.421 110.663C115.553 110.486 115.685 110.312 115.818 110.135C115.576 109.73 115.251 109.39 114.868 109.143C113.542 108.304 111.713 108.885 110.755 110.181C109.794 111.477 109.613 113.295 109.946 114.915C110.274 116.292 110.817 117.6 111.552 118.781C111.48 118.88 111.405 118.977 111.333 119.076C110.018 120.902 108.872 122.864 107.912 124.931C108.184 122.638 104.86 114.356 103.575 112.601C102.032 110.494 98.866 111.414 98.5941 114.085C98.5914 114.111 98.5888 114.137 98.5863 114.163C98.7772 114.279 98.9641 114.402 99.1469 114.533C99.3766 114.699 99.5546 114.936 99.6575 115.213C99.7604 115.49 99.7836 115.794 99.7238 116.085C99.6641 116.376 99.5242 116.641 99.3227 116.845C99.1211 117.049 98.8672 117.183 98.5942 117.228L98.5662 117.233C96.011 121.175 104.202 131.434 106.253 129.13C105.288 132.085 104.682 135.163 104.452 138.286C104.321 140.129 104.329 141.98 104.475 143.821L104.466 143.756C104.011 139.745 96.1952 133.782 93.9129 134.279C92.5982 134.565 91.3032 134.5 91.5029 135.933C91.5061 135.956 91.5093 135.979 91.5126 136.002C91.8668 136.157 92.2117 136.337 92.5453 136.539C92.7362 136.656 92.923 136.779 93.1059 136.91C93.3356 137.076 93.5135 137.312 93.6165 137.589C93.7194 137.866 93.7425 138.17 93.6828 138.462C93.623 138.753 93.4832 139.018 93.2816 139.222C93.0801 139.426 92.8261 139.56 92.5531 139.605L92.5251 139.61C92.505 139.613 92.4878 139.616 92.4676 139.619C91.3045 143.943 99.9301 150.921 105.174 148.7H105.177C105.696 151.14 106.449 153.515 107.424 155.786H115.449C115.478 155.69 115.504 155.591 115.53 155.494C114.787 155.545 114.041 155.497 113.309 155.351C113.905 154.562 114.5 153.766 115.096 152.977C115.109 152.962 115.121 152.947 115.133 152.93C115.435 152.526 115.74 152.125 116.042 151.721L116.042 151.721C116.058 150.482 115.927 149.247 115.651 148.045L115.651 148.044ZM106.46 128.512L106.464 128.505L106.46 128.518V128.512ZM104.682 145.826L104.613 145.658C104.616 145.537 104.616 145.415 104.613 145.291C104.613 145.257 104.607 145.223 104.607 145.188C104.633 145.403 104.656 145.617 104.685 145.832L104.682 145.826Z" fill="#3F3D56"/>
<path d="M25.4688 130.001C27.0933 130.001 28.4102 128.578 28.4102 126.823C28.4102 125.068 27.0933 123.646 25.4688 123.646C23.8443 123.646 22.5273 125.068 22.5273 126.823C22.5273 128.578 23.8443 130.001 25.4688 130.001Z" fill="#3F3D56"/>
<path d="M60.7656 164.668C62.3901 164.668 63.707 163.245 63.707 161.49C63.707 159.735 62.3901 158.312 60.7656 158.312C59.1411 158.312 57.8242 159.735 57.8242 161.49C57.8242 163.245 59.1411 164.668 60.7656 164.668Z" fill="#3F3D56"/>
<path d="M194.734 164.668C196.359 164.668 197.676 163.245 197.676 161.49C197.676 159.735 196.359 158.312 194.734 158.312C193.11 158.312 191.793 159.735 191.793 161.49C191.793 163.245 193.11 164.668 194.734 164.668Z" fill="#3F3D56"/>
<path d="M201.955 124.223C203.58 124.223 204.896 122.801 204.896 121.045C204.896 119.29 203.58 117.868 201.955 117.868C200.331 117.868 199.014 119.29 199.014 121.045C199.014 122.801 200.331 124.223 201.955 124.223Z" fill="#3F3D56"/>
<path d="M193.398 94.7565C195.023 94.7565 196.34 93.3337 196.34 91.5787C196.34 89.8236 195.023 88.4009 193.398 88.4009C191.774 88.4009 190.457 89.8236 190.457 91.5787C190.457 93.3337 191.774 94.7565 193.398 94.7565Z" fill="#3F3D56"/>
<path d="M70.6602 121.046C70.6585 121.857 70.3679 122.637 69.8487 123.224C69.3295 123.811 68.6214 124.159 67.8709 124.198C67.1203 124.236 66.3849 123.961 65.8167 123.43C65.2486 122.899 64.8911 122.152 64.8184 121.344C64.7457 120.536 64.9633 119.729 65.4261 119.09C65.889 118.45 66.5616 118.027 67.3049 117.909C68.0482 117.79 68.8053 117.985 69.4194 118.453C70.0335 118.92 70.4576 119.625 70.6041 120.422C70.6418 120.627 70.6606 120.836 70.6602 121.046Z" fill="#3F3D56"/>
<path d="M129.488 104.001C131.113 104.001 132.43 102.578 132.43 100.823C132.43 99.0683 131.113 97.6455 129.488 97.6455C127.864 97.6455 126.547 99.0683 126.547 100.823C126.547 102.578 127.864 104.001 129.488 104.001Z" fill="#3F3D56"/>
<path d="M100.342 100.823C100.34 101.635 100.05 102.415 99.5303 103.002C99.0111 103.588 98.303 103.937 97.5525 103.975C96.802 104.014 96.0666 103.739 95.4984 103.208C94.9302 102.677 94.5728 101.93 94.5001 101.122C94.4274 100.314 94.6449 99.5069 95.1078 98.8674C95.5706 98.228 96.2433 97.8053 96.9866 97.6867C97.7299 97.5682 98.4869 97.7629 99.101 98.2306C99.7151 98.6983 100.139 99.4032 100.286 100.199C100.323 100.405 100.342 100.614 100.342 100.823Z" fill="#3F3D56"/>
<path d="M62.3712 91.5787C62.3694 92.3905 62.0789 93.1704 61.5596 93.7571C61.0404 94.3438 60.3323 94.6925 59.5818 94.7308C58.8313 94.7692 58.0958 94.4944 57.5277 93.9632C56.9595 93.4321 56.6021 92.6853 56.5294 91.8774C56.4567 91.0695 56.6742 90.2622 57.1371 89.6228C57.5999 88.9834 58.2726 88.5607 59.0159 88.4421C59.7592 88.3236 60.5162 88.5183 61.1303 88.986C61.7444 89.4537 62.1686 90.1586 62.315 90.9547C62.3527 91.1602 62.3716 91.3692 62.3712 91.5787Z" fill="#3F3D56"/>
<path d="M160.24 131.157C161.865 131.157 163.182 129.734 163.182 127.979C163.182 126.224 161.865 124.801 160.24 124.801C158.616 124.801 157.299 126.224 157.299 127.979C157.299 129.734 158.616 131.157 160.24 131.157Z" fill="#3F3D56"/>
<path d="M113.98 102.267C116.342 102.267 118.258 100.198 118.258 97.6452C118.258 95.0924 116.342 93.0229 113.98 93.0229C111.617 93.0229 109.701 95.0924 109.701 97.6452C109.701 100.198 111.617 102.267 113.98 102.267Z" fill="#3F3D56"/>
<path d="M229.682 164.911L0.318387 165C0.276576 165 0.235173 164.991 0.196544 164.974C0.157915 164.956 0.122818 164.931 0.0932533 164.899C0.0636882 164.867 0.040233 164.829 0.0242324 164.788C0.00823185 164.746 0 164.701 0 164.656C0 164.611 0.00823185 164.566 0.0242324 164.524C0.040233 164.483 0.0636882 164.445 0.0932533 164.413C0.122818 164.381 0.157915 164.355 0.196544 164.338C0.235173 164.321 0.276576 164.312 0.318387 164.312L229.682 164.223C229.766 164.223 229.847 164.26 229.906 164.324C229.966 164.389 229.999 164.476 229.999 164.567C229.999 164.658 229.966 164.746 229.906 164.81C229.847 164.874 229.766 164.911 229.682 164.911Z" fill="#CACACA"/>
</g>
<defs>
<clipPath id="clip0_712_5423">
<rect width="230" height="165" fill="white"/>
</clipPath>
</defs>
</svg>
