<svg width="24" height="24" viewBox="0 0 24 24" fill="none" xmlns="http://www.w3.org/2000/svg">
<path fill-rule="evenodd" clip-rule="evenodd" d="M11.9987 0.333496C5.5554 0.333496 0.332031 5.55681 0.332031 12.0001C0.332031 18.4434 5.5554 23.6668 11.9987 23.6668C18.4421 23.6668 23.6654 18.4435 23.6654 12.0001C23.6654 5.55681 18.4421 0.333496 11.9987 0.333496ZM11.9987 21.3335C6.85231 21.3335 2.66538 17.1466 2.66538 12.0001C2.66538 6.85372 6.85226 2.66685 11.9987 2.66685C17.1452 2.66685 21.332 6.85372 21.332 12.0001C21.332 17.1466 17.1452 21.3335 11.9987 21.3335ZM13.4596 7.3335C13.4596 8.1794 12.8437 8.79185 12.0105 8.79185C11.1437 8.79185 10.5429 8.17935 10.5429 7.31731C10.5429 6.48879 11.1599 5.8752 12.0105 5.8752C12.8437 5.8752 13.4596 6.48879 13.4596 7.3335ZM10.8346 10.8335H13.1679V17.8335H10.8346V10.8335Z" fill="#2E2E2E"/>
</svg>
