<svg width="185" height="180" viewBox="0 0 185 180" fill="none" xmlns="http://www.w3.org/2000/svg">
<g clip-path="url(#clip0_712_5556)">
<path d="M28.0352 63.7876C28.0352 63.7876 30.931 73.4728 30.0623 74.6474C29.1936 75.822 39.3288 68.1906 39.3288 68.1906C39.3288 68.1906 35.5643 65.5492 37.0113 61.7339L28.0352 63.7876Z" fill="#9F616A"/>
<path d="M155.696 42.6541H154.724V15.6368C154.724 11.4897 153.098 7.51238 150.205 4.57991C147.311 1.64744 143.387 2.0397e-09 139.295 2.0397e-09H82.8173C80.7912 -3.3164e-05 78.7849 0.404401 76.913 1.19021C75.0411 1.97602 73.3403 3.12781 71.9076 4.57982C70.4749 6.03183 69.3385 7.75563 68.5631 9.65279C67.7877 11.55 67.3887 13.5833 67.3887 15.6368V163.856C67.3887 168.003 69.0142 171.98 71.9075 174.912C74.8009 177.845 78.7252 179.492 82.817 179.492H139.295C143.386 179.492 147.31 177.845 150.204 174.912C153.097 171.98 154.722 168.003 154.722 163.856V61.8855H155.694L155.696 42.6541Z" fill="#090814"/>
<path d="M151.559 14.5895V164.902C151.558 168.046 150.326 171.062 148.133 173.285C145.94 175.509 142.965 176.759 139.863 176.76H82.2245C79.1207 176.761 76.1437 175.511 73.9486 173.287C71.7535 171.063 70.5201 168.047 70.5195 164.901V14.5898C70.5205 11.4444 71.7541 8.42812 73.949 6.20444C76.144 3.98077 79.1206 2.73178 82.2241 2.73219H89.2157C88.8724 3.58783 88.7418 4.51585 88.8352 5.43466C88.9287 6.35347 89.2434 7.23495 89.7517 8.00163C90.26 8.7683 90.9463 9.39669 91.7504 9.83156C92.5544 10.2664 93.4515 10.4945 94.3629 10.4956H127.223C128.134 10.4945 129.031 10.2665 129.835 9.83157C130.639 9.39668 131.326 8.76826 131.834 8.00156C132.342 7.23485 132.657 6.35333 132.75 5.43448C132.844 4.51563 132.713 3.58759 132.37 2.73193H139.859C142.961 2.73233 145.936 3.98115 148.13 6.20387C150.324 8.42658 151.557 11.4413 151.559 14.5852V14.5895Z" fill="white"/>
<path d="M111.029 74.9307C124.319 74.9307 135.092 64.012 135.092 50.543C135.092 37.074 124.319 26.1553 111.029 26.1553C97.74 26.1553 86.9668 37.074 86.9668 50.543C86.9668 64.012 97.74 74.9307 111.029 74.9307Z" fill="#D11A22"/>
<path d="M137.273 101.171H86.0558C85.8044 101.171 85.5633 101.07 85.3855 100.89C85.2077 100.709 85.1077 100.465 85.1074 100.21V87.3343C85.1078 87.0794 85.2078 86.8351 85.3856 86.6549C85.5634 86.4748 85.8044 86.3734 86.0558 86.373H137.273C137.524 86.3734 137.765 86.4748 137.943 86.6549C138.121 86.8351 138.221 87.0794 138.221 87.3343V100.209C138.221 100.464 138.121 100.709 137.943 100.889C137.765 101.069 137.524 101.17 137.273 101.171V101.171ZM86.0558 86.7572C85.9049 86.7573 85.7602 86.8181 85.6535 86.9263C85.5468 87.0344 85.4868 87.1811 85.4867 87.334V100.209C85.4868 100.362 85.5468 100.509 85.6535 100.617C85.7602 100.725 85.9049 100.786 86.0558 100.786H137.273C137.424 100.786 137.568 100.725 137.675 100.617C137.782 100.509 137.842 100.362 137.842 100.209V87.334C137.842 87.1811 137.782 87.0344 137.675 86.9263C137.568 86.8181 137.424 86.7573 137.273 86.7572H86.0558Z" fill="#E6E6E6"/>
<path d="M101.895 91.0103C101.721 91.0137 101.556 91.0861 101.434 91.2119C101.312 91.3377 101.244 91.5069 101.244 91.6832C101.244 91.8594 101.312 92.0286 101.434 92.1545C101.556 92.2803 101.721 92.3527 101.895 92.3561H133.193C133.368 92.3611 133.538 92.2958 133.666 92.1746C133.793 92.0533 133.869 91.8858 133.875 91.7086C133.882 91.5313 133.819 91.3586 133.701 91.228C133.582 91.0973 133.418 91.0194 133.243 91.011H133.214H101.895V91.0103Z" fill="#E6E6E6"/>
<path d="M101.894 95.0469C101.718 95.0469 101.549 95.1178 101.425 95.244C101.3 95.3702 101.23 95.5413 101.23 95.7198C101.23 95.8983 101.3 96.0694 101.425 96.1956C101.549 96.3218 101.718 96.3927 101.894 96.3927H133.192C133.367 96.3977 133.537 96.3324 133.665 96.2112C133.792 96.0899 133.868 95.9224 133.874 95.7452C133.881 95.5679 133.818 95.3952 133.7 95.2646C133.581 95.134 133.417 95.056 133.242 95.0476H133.213H101.894V95.0469Z" fill="#E6E6E6"/>
<path d="M137.273 122.633H86.0558C85.8044 122.633 85.5633 122.532 85.3855 122.351C85.2077 122.171 85.1077 121.927 85.1074 121.672V108.796C85.1078 108.541 85.2078 108.297 85.3856 108.117C85.5634 107.937 85.8044 107.835 86.0558 107.835H137.273C137.524 107.835 137.765 107.937 137.943 108.117C138.121 108.297 138.221 108.541 138.221 108.796V121.673C138.22 121.927 138.12 122.171 137.943 122.351C137.765 122.531 137.524 122.632 137.273 122.632V122.633ZM86.0558 108.219C85.9049 108.219 85.7602 108.28 85.6535 108.388C85.5468 108.497 85.4868 108.643 85.4867 108.796V121.673C85.4868 121.826 85.5468 121.972 85.6535 122.08C85.7602 122.188 85.9049 122.249 86.0558 122.249H137.273C137.424 122.249 137.568 122.188 137.675 122.08C137.782 121.972 137.842 121.826 137.842 121.673V108.796C137.842 108.643 137.782 108.497 137.675 108.388C137.568 108.28 137.424 108.219 137.273 108.219H86.0558Z" fill="#E6E6E6"/>
<path d="M101.894 112.542C101.718 112.542 101.549 112.612 101.425 112.739C101.3 112.865 101.23 113.036 101.23 113.214C101.23 113.393 101.3 113.564 101.425 113.69C101.549 113.816 101.718 113.887 101.894 113.887H133.192C133.28 113.89 133.367 113.874 133.449 113.842C133.531 113.81 133.606 113.762 133.669 113.701C133.733 113.639 133.783 113.565 133.819 113.484C133.854 113.402 133.873 113.314 133.874 113.226C133.875 113.137 133.859 113.048 133.827 112.966C133.794 112.883 133.746 112.808 133.685 112.744C133.623 112.68 133.55 112.63 133.469 112.595C133.388 112.56 133.302 112.542 133.214 112.542H101.894Z" fill="#E6E6E6"/>
<path d="M101.894 116.58C101.718 116.58 101.549 116.65 101.425 116.777C101.3 116.903 101.23 117.074 101.23 117.253C101.23 117.431 101.3 117.602 101.425 117.728C101.549 117.855 101.718 117.925 101.894 117.925H133.192C133.28 117.928 133.367 117.913 133.449 117.88C133.531 117.848 133.606 117.8 133.669 117.739C133.733 117.677 133.783 117.603 133.819 117.522C133.854 117.44 133.873 117.353 133.874 117.264C133.875 117.175 133.859 117.086 133.827 117.004C133.794 116.921 133.746 116.846 133.685 116.782C133.623 116.718 133.55 116.668 133.469 116.633C133.388 116.598 133.302 116.58 133.214 116.58H101.894Z" fill="#E6E6E6"/>
<path d="M137.273 144.165H86.0558C85.8044 144.165 85.5633 144.064 85.3855 143.884C85.2077 143.703 85.1077 143.459 85.1074 143.204V130.328C85.1078 130.074 85.2078 129.829 85.3856 129.649C85.5634 129.469 85.8044 129.368 86.0558 129.367H137.273C137.524 129.368 137.765 129.469 137.943 129.649C138.121 129.829 138.221 130.074 138.221 130.328V143.205C138.221 143.46 138.121 143.704 137.943 143.884C137.765 144.064 137.524 144.166 137.273 144.166V144.165ZM86.0558 129.752C85.9049 129.752 85.7602 129.813 85.6535 129.921C85.5468 130.029 85.4868 130.175 85.4867 130.328V143.205C85.4868 143.358 85.5468 143.504 85.6535 143.613C85.7602 143.721 85.9049 143.781 86.0558 143.782H137.273C137.424 143.781 137.568 143.721 137.675 143.613C137.782 143.504 137.842 143.358 137.842 143.205V130.328C137.842 130.175 137.782 130.029 137.675 129.921C137.568 129.813 137.424 129.752 137.273 129.752H86.0558Z" fill="#E6E6E6"/>
<path d="M101.894 134.075C101.718 134.075 101.549 134.146 101.425 134.272C101.3 134.398 101.23 134.569 101.23 134.748C101.23 134.926 101.3 135.097 101.425 135.223C101.549 135.35 101.718 135.421 101.894 135.421H133.192C133.367 135.426 133.537 135.36 133.665 135.239C133.792 135.118 133.868 134.95 133.874 134.773C133.881 134.596 133.818 134.423 133.7 134.292C133.581 134.162 133.417 134.084 133.242 134.075H133.213H101.894V134.075Z" fill="#E6E6E6"/>
<path d="M101.894 138.112C101.718 138.112 101.549 138.183 101.425 138.309C101.3 138.436 101.23 138.607 101.23 138.785C101.23 138.964 101.3 139.135 101.425 139.261C101.549 139.387 101.718 139.458 101.894 139.458H133.192C133.367 139.463 133.537 139.398 133.665 139.277C133.792 139.155 133.868 138.988 133.874 138.811C133.881 138.633 133.818 138.461 133.7 138.33C133.581 138.199 133.417 138.121 133.242 138.113H133.213H101.894V138.112Z" fill="#E6E6E6"/>
<path d="M184.517 179.962H0.482923C0.216045 179.962 0 179.844 0 179.698C0 179.552 0.216294 179.434 0.482923 179.434H184.517C184.784 179.434 185 179.552 185 179.698C185 179.844 184.784 179.962 184.517 179.962Z" fill="#E6E6E6"/>
<path d="M176.722 169.667C175.936 169.947 175.091 170.017 174.271 169.87C173.45 169.724 172.68 169.366 172.036 168.83C170.394 167.434 169.88 165.134 169.461 163.004L168.223 156.704L170.815 158.513C172.68 159.814 174.587 161.157 175.878 163.042C177.169 164.927 177.733 167.5 176.695 169.539" fill="#E6E6E6"/>
<path d="M176.323 177.732C176.649 175.323 176.985 172.882 176.756 170.446C176.552 168.283 175.901 166.171 174.575 164.439C173.872 163.521 173.016 162.735 172.045 162.115C171.793 161.953 171.56 162.36 171.812 162.521C173.49 163.596 174.789 165.184 175.52 167.055C176.327 169.137 176.457 171.405 176.317 173.616C176.233 174.953 176.055 176.281 175.875 177.606C175.861 177.666 175.87 177.73 175.9 177.783C175.93 177.837 175.979 177.877 176.037 177.895C176.096 177.911 176.159 177.903 176.213 177.873C176.266 177.842 176.305 177.791 176.322 177.731L176.323 177.732Z" fill="#F2F2F2"/>
<path d="M173.973 173.866C173.635 174.385 173.172 174.808 172.627 175.093C172.082 175.378 171.473 175.516 170.86 175.494C169.284 175.418 167.971 174.304 166.788 173.246L163.291 170.115L165.606 170.002C167.27 169.922 168.978 169.846 170.565 170.367C172.151 170.887 173.612 172.139 173.902 173.801" fill="#E6E6E6"/>
<path d="M177.245 179.118C175.675 176.3 173.851 173.169 170.595 172.168C169.69 171.89 168.741 171.791 167.798 171.875C167.501 171.9 167.576 172.365 167.873 172.339C169.452 172.206 171.029 172.629 172.337 173.536C173.595 174.404 174.575 175.611 175.404 176.891C175.912 177.674 176.367 178.493 176.822 179.309C176.967 179.57 177.392 179.381 177.245 179.118Z" fill="#F2F2F2"/>
<path d="M92.4444 97.7304C94.6444 97.7304 96.4279 95.9228 96.4279 93.6931C96.4279 91.4633 94.6444 89.6558 92.4444 89.6558C90.2444 89.6558 88.4609 91.4633 88.4609 93.6931C88.4609 95.9228 90.2444 97.7304 92.4444 97.7304Z" fill="#D11A22"/>
<path d="M90.5381 92.939C90.4922 92.939 90.4551 93.2403 90.4551 93.6118C90.4551 93.9833 90.4922 94.2848 90.5381 94.2848H94.455C94.5009 94.2909 94.5387 93.9946 94.5395 93.6231C94.5649 93.3918 94.5369 93.1577 94.4578 92.9392H90.5381V92.939Z" fill="#E6E6E6"/>
<path d="M92.4444 119.271C94.6444 119.271 96.4279 117.464 96.4279 115.234C96.4279 113.004 94.6444 111.197 92.4444 111.197C90.2444 111.197 88.4609 113.004 88.4609 115.234C88.4609 117.464 90.2444 119.271 92.4444 119.271Z" fill="#D11A22"/>
<path d="M90.5381 114.48C90.4922 114.48 90.4551 114.781 90.4551 115.153C90.4551 115.524 90.4922 115.826 90.5381 115.826H94.455C94.5009 115.832 94.5387 115.536 94.5395 115.164C94.5649 114.933 94.5369 114.699 94.4578 114.48L90.5381 114.48Z" fill="#E6E6E6"/>
<path d="M92.4444 140.804C94.6444 140.804 96.4279 138.996 96.4279 136.766C96.4279 134.537 94.6444 132.729 92.4444 132.729C90.2444 132.729 88.4609 134.537 88.4609 136.766C88.4609 138.996 90.2444 140.804 92.4444 140.804Z" fill="#D11A22"/>
<path d="M90.5381 136.012C90.4922 136.012 90.4551 136.314 90.4551 136.685C90.4551 137.057 90.4922 137.358 90.5381 137.358H94.455C94.5009 137.364 94.5387 137.068 94.5395 136.696C94.5649 136.465 94.537 136.231 94.4578 136.012L90.5381 136.012Z" fill="#E6E6E6"/>
<path d="M105.831 43.8458L104.422 45.2744L116.227 57.2394L117.637 55.8107L105.831 43.8458Z" fill="white"/>
<path d="M117.636 45.2758L116.227 43.8472L104.421 55.8121L105.831 57.2408L117.636 45.2758Z" fill="white"/>
<path d="M22.4915 115.198C22.8368 115.074 23.1511 114.875 23.4123 114.615C23.6735 114.354 23.8752 114.039 24.0032 113.691C24.1312 113.343 24.1824 112.971 24.1531 112.601C24.1239 112.231 24.015 111.872 23.8341 111.549L29.7051 104.765L25.1221 104.124L20.2485 110.665C19.7334 111.009 19.3607 111.533 19.201 112.137C19.0414 112.741 19.106 113.383 19.3825 113.942C19.659 114.501 20.1282 114.937 20.7012 115.169C21.2742 115.401 21.9111 115.411 22.4912 115.198L22.4915 115.198Z" fill="#9F616A"/>
<path d="M29.5731 175.326H25.4777L23.5293 159.315H29.5738L29.5731 175.326Z" fill="#9F616A"/>
<path d="M51.011 171.852L47.0988 173.083L40.5547 158.378L46.3273 156.562L51.011 171.852Z" fill="#9F616A"/>
<path d="M26.4365 101.512L20.3711 108.552L25.1196 108.985L26.4365 101.512Z" fill="#E6E6E6"/>
<path d="M24.0668 110.587C24.0668 110.587 21.96 111.654 21.6966 116.459C21.4332 121.263 22.4867 133.809 22.4867 133.809C22.4867 133.809 21.4334 139.414 22.4867 144.486C23.5401 149.557 21.4334 167.973 22.7501 167.973C24.0668 167.973 30.914 168.774 31.1774 167.973C31.4407 167.172 31.7041 155.161 31.7041 155.161C31.7041 155.161 33.811 149.022 31.7041 145.286C31.7041 145.286 39.0604 158.305 43.8183 168.241C44.8597 170.415 52.7723 167.974 51.4556 165.571C50.1389 163.169 46.9787 152.226 46.9787 152.226C46.9787 152.226 44.6085 144.218 40.395 140.749L42.5019 123.666C42.5019 123.666 46.979 112.189 44.3458 110.587C41.7127 108.986 24.0668 110.587 24.0668 110.587Z" fill="#090814"/>
<path d="M31.9682 67.6137C35.7498 67.6137 38.8154 64.5067 38.8154 60.674C38.8154 56.8414 35.7498 53.7344 31.9682 53.7344C28.1867 53.7344 25.1211 56.8414 25.1211 60.674C25.1211 64.5067 28.1867 67.6137 31.9682 67.6137Z" fill="#9F616A"/>
<path d="M39.6053 67.6138L31.0931 72.685C31.0931 72.685 27.8338 74.5453 26.6162 77.7563C25.3185 81.1784 26.0728 85.9966 26.6162 87.0982C27.6695 89.2335 26.1744 94.5717 26.1744 94.5717L24.8577 106.85C24.8577 106.85 20.1174 111.387 23.8044 111.921C27.4914 112.455 34.0751 111.654 38.0255 111.921C41.9758 112.188 46.4527 112.722 45.136 110.052C43.8193 107.382 42.2392 105.514 43.8193 100.177C45.0557 95.9999 45.0022 80.3813 44.9204 73.7854C44.9094 72.8794 44.6697 71.9914 44.2244 71.2058C43.779 70.4202 43.1427 69.7632 42.376 69.2973L39.6053 67.6138Z" fill="#E5E5E5"/>
<path opacity="0.1" d="M35.7862 76.022L36.5761 92.3035L28.9196 108.018L27.6211 107.517L35.5218 92.8372L35.7862 76.022Z" fill="black"/>
<path opacity="0.1" d="M44.4764 95.7727V93.9038L35.5234 108.851L44.4764 95.7727Z" fill="black"/>
<path d="M27.1075 54.2451L25.9764 53.7865C25.9764 53.7865 28.3437 51.1456 31.6362 51.3751L30.7099 50.3417C30.7099 50.3417 32.9738 49.4232 35.0321 51.8343C36.114 53.1018 37.3657 54.5919 38.1469 56.2701H39.3592L38.8533 57.3993L40.6241 58.5284L38.8065 58.3264C38.9786 59.3012 38.9197 60.3035 38.6346 61.2507L38.6844 62.1432C38.6844 62.1432 36.5765 58.8376 36.5765 58.3802V59.5268C36.5765 59.5268 35.4445 58.4933 35.4445 57.8044L34.827 58.6082L34.5183 57.3455L30.7107 58.6082L31.3277 57.5743L28.9604 57.9188L29.8866 56.656C29.8866 56.656 27.2111 58.1486 27.1082 59.4119C27.0053 60.6751 25.6677 62.2824 25.6677 62.2824L25.0502 61.134C25.0502 61.134 24.1232 55.9675 27.1075 54.2451Z" fill="#090814"/>
<path d="M31.5383 115.954C31.8564 115.77 32.1309 115.517 32.3423 115.214C32.5538 114.911 32.6971 114.564 32.7621 114.199C32.8272 113.834 32.8124 113.458 32.7188 113.099C32.6253 112.74 32.4552 112.406 32.2206 112.121L36.8113 104.388L32.1879 104.582L28.5374 111.896C28.0908 112.327 27.8158 112.91 27.7646 113.533C27.7133 114.155 27.8893 114.776 28.2593 115.276C28.6292 115.776 29.1674 116.122 29.7717 116.246C30.3761 116.371 31.0046 116.267 31.5383 115.954V115.954Z" fill="#9F616A"/>
<path d="M41.9748 71.0839L43.9498 70.6836C43.9498 70.6836 49.8752 75.0876 48.0317 83.8956C46.1882 92.7036 38.0244 106.049 38.0244 106.049C38.0244 106.049 36.1804 108.452 35.6542 108.985C35.1279 109.519 34.0741 108.985 34.6008 109.786C35.1276 110.587 33.8107 111.121 33.8107 111.121C33.8107 111.121 28.0168 111.121 28.5436 108.985C29.0704 106.85 38.0244 91.6348 38.0244 91.6348L36.707 77.4886C36.707 77.4886 35.6539 70.55 41.9748 71.0839Z" fill="#E5E5E5"/>
<path d="M47.9557 171.795C47.9557 171.795 45.2573 169.789 45.2573 170.883C45.2573 171.977 42.199 176.353 42.199 176.353C42.199 176.353 37.162 180 41.2995 180C45.437 180 47.2361 179.27 47.2361 179.27L51.5537 176.353C51.5537 176.353 52.6332 175.077 52.2734 173.618C51.9136 172.16 50.6537 170.154 50.6537 170.154C50.6537 170.154 49.2151 172.16 47.9557 171.795Z" fill="#090814"/>
<path d="M25.1544 173.094C25.1544 173.094 24.7821 171.207 23.4791 172.151C22.1761 173.094 18.6392 175.924 18.6392 175.924C18.6392 175.924 12.1237 177.434 16.2191 179.32C20.3144 181.207 29.622 178.566 29.622 178.566C29.622 178.566 29.9943 172.528 29.622 172.717C29.2498 172.906 25.3405 173.472 25.1544 173.094Z" fill="#090814"/>
</g>
<defs>
<clipPath id="clip0_712_5556">
<rect width="185" height="180" fill="white"/>
</clipPath>
</defs>
</svg>
