<svg width="49" height="49" viewBox="0 0 49 49" fill="none" xmlns="http://www.w3.org/2000/svg">
<path d="M26.0306 14.2916C26.0306 13.4459 25.345 12.7604 24.4993 12.7604C23.6537 12.7604 22.9681 13.4459 22.9681 14.2916V18.8854H18.3743C17.5287 18.8854 16.8431 19.5709 16.8431 20.4166C16.8431 21.2623 17.5287 21.9479 18.3743 21.9479H22.9681V26.5416C22.9681 27.3873 23.6537 28.0729 24.4993 28.0729C25.345 28.0729 26.0306 27.3873 26.0306 26.5416V21.9479H30.6243C31.47 21.9479 32.1556 21.2623 32.1556 20.4166C32.1556 19.5709 31.47 18.8854 30.6243 18.8854H26.0306V14.2916Z" fill="white"/>
<path fill-rule="evenodd" clip-rule="evenodd" d="M24.4993 0.510376C14.5292 0.510376 6.63477 9.17271 6.63477 19.6177C6.63477 22.9675 8.29894 26.9121 10.3927 30.6138C12.5204 34.3754 15.2361 38.1306 17.617 41.1667L17.6964 41.268C18.8585 42.7501 19.8485 44.0127 20.8085 44.8847C21.8559 45.8361 23.0109 46.4591 24.4993 46.4591C25.9878 46.4591 27.1428 45.8361 28.1902 44.8847C29.1502 44.0127 30.1402 42.7501 31.3023 41.2679L31.3817 41.1667C33.7626 38.1306 36.4783 34.3754 38.606 30.6138C40.6998 26.9121 42.3639 22.9675 42.3639 19.6177C42.3639 9.17271 34.4695 0.510376 24.4993 0.510376ZM9.69727 19.6177C9.69727 10.6487 16.4282 3.57288 24.4993 3.57288C32.5705 3.57288 39.3014 10.6487 39.3014 19.6177C39.3014 22.1218 37.9955 25.4725 35.9403 29.106C33.919 32.6796 31.3067 36.2995 28.9719 39.2769C27.7081 40.8884 26.8761 41.941 26.131 42.6179C25.4515 43.2351 24.9979 43.3966 24.4993 43.3966C24.0008 43.3966 23.5472 43.2351 22.8677 42.6179C22.1226 41.941 21.2906 40.8884 20.0268 39.2769C17.692 36.2995 15.0797 32.6796 13.0584 29.106C11.0032 25.4725 9.69727 22.1218 9.69727 19.6177Z" fill="white"/>
</svg>
