<svg width="18" height="18" viewBox="0 0 18 18" fill="none" xmlns="http://www.w3.org/2000/svg">
<path d="M6.37591 3.40794C5.50591 3.44144 4.71941 3.75194 4.29891 4.17294C4.25246 4.21936 4.19731 4.25618 4.13663 4.28129C4.07595 4.3064 4.01091 4.31932 3.94524 4.31929C3.87956 4.31927 3.81454 4.30631 3.75387 4.28116C3.6932 4.256 3.63809 4.21915 3.59166 4.17269C3.54524 4.12624 3.50842 4.07109 3.48331 4.01041C3.4582 3.94973 3.44529 3.88469 3.44531 3.81902C3.44534 3.75334 3.45829 3.68831 3.48345 3.62765C3.5086 3.56698 3.54546 3.51186 3.59191 3.46544C4.24041 2.81694 5.29641 2.44894 6.33691 2.40844C7.38441 2.36794 8.52791 2.65444 9.32891 3.45544C9.42267 3.54926 9.47531 3.67648 9.47527 3.80912C9.47522 3.94175 9.42248 4.06894 9.32866 4.16269C9.23484 4.25645 9.10762 4.30909 8.97499 4.30904C8.84235 4.309 8.71517 4.25626 8.62141 4.16244C8.07641 3.61694 7.23941 3.37394 6.37591 3.40744" fill="#D11A22"/>
<path fill-rule="evenodd" clip-rule="evenodd" d="M11.468 10.6919C12.4593 9.52033 13.0023 8.03468 13 6.49994C13 2.90994 10.09 -6.10352e-05 6.5 -6.10352e-05C2.91 -6.10352e-05 0 2.90994 0 6.49994C0 10.0899 2.91 12.9999 6.5 12.9999C8.0975 12.9999 9.56 12.4239 10.692 11.4679L10.5 12.5719L14.257 16.3289L16.329 14.2569L12.572 10.4999L11.468 10.6919ZM6.5 11.4999C9.2615 11.4999 11.5 9.26144 11.5 6.49994C11.5 3.73844 9.2615 1.49994 6.5 1.49994C3.7385 1.49994 1.5 3.73844 1.5 6.49994C1.5 9.26144 3.7385 11.4999 6.5 11.4999Z" fill="#D11A22"/>
<path d="M14.9648 17.0359L17.0368 14.9639L17.7148 15.6419C18.0963 16.0234 18.0963 16.6419 17.7148 17.0229L17.0238 17.7139C16.6423 18.0954 16.0238 18.0954 15.6428 17.7139L14.9648 17.0359Z" fill="#D11A22"/>
</svg>
