<svg width="105" height="105" viewBox="0 0 105 105" fill="none" xmlns="http://www.w3.org/2000/svg">
<path d="M105 52.4475C105 23.4937 81.48 0 52.5 0C23.52 0 0 23.4937 0 52.4475C0 68.3944 7.245 82.7663 18.585 92.4131C18.69 92.5181 18.795 92.5181 18.795 92.6231C19.74 93.3581 20.685 94.0931 21.735 94.8281C22.26 95.1431 22.68 95.5566 23.205 95.9766C31.8846 101.852 42.124 104.994 52.605 105C63.086 104.994 73.3254 101.852 82.005 95.9766C82.53 95.6616 82.95 95.2481 83.475 94.9266C84.42 94.1981 85.47 93.4631 86.415 92.7281C86.52 92.6231 86.625 92.6231 86.625 92.5181C97.755 82.7597 105 68.3944 105 52.4475ZM52.5 98.3916C42.63 98.3916 33.6 95.2416 26.145 89.9981C26.25 89.1581 26.46 88.3247 26.67 87.4847C27.2977 85.2089 28.2152 83.0232 29.4 80.9813C30.555 78.9863 31.92 77.2012 33.6 75.6263C35.175 74.0513 37.065 72.5878 38.955 71.4328C40.95 70.2778 43.05 69.4378 45.36 68.8078C47.6887 68.1841 50.0892 67.8686 52.5 67.8694C59.6581 67.8152 66.5537 70.5612 71.715 75.5213C74.13 77.9362 76.02 80.7691 77.385 84.0197C78.12 85.9097 78.645 87.9025 78.96 89.9981C71.2108 95.446 61.9725 98.3765 52.5 98.3916ZM36.435 49.8291C35.5117 47.7102 35.0466 45.4202 35.07 43.1091C35.07 40.8056 35.49 38.4956 36.435 36.3956C37.38 34.2956 38.64 32.4122 40.215 30.8372C41.79 29.2622 43.68 28.0088 45.78 27.0638C47.88 26.1187 50.19 25.6987 52.5 25.6987C54.915 25.6987 57.12 26.1187 59.22 27.0638C61.32 28.0088 63.21 29.2687 64.785 30.8372C66.36 32.4122 67.62 34.3022 68.565 36.3956C69.51 38.4956 69.93 40.8056 69.93 43.1091C69.93 45.5241 69.51 47.7291 68.565 49.8225C67.6582 51.8943 66.3767 53.7809 64.785 55.3875C63.1779 56.9769 61.2913 58.2561 59.22 59.1609C54.8804 60.9405 50.0146 60.9405 45.675 59.1609C43.6037 58.2561 41.7171 56.9769 40.11 55.3875C38.5169 53.8037 37.2661 51.9161 36.435 49.8291ZM85.155 84.6497C85.155 84.4397 85.05 84.3347 85.05 84.1247C84.0192 80.8389 82.4969 77.728 80.535 74.8978C78.5714 72.0469 76.1604 69.5317 73.395 67.4494C71.2823 65.8595 68.9919 64.5205 66.57 63.4594C67.6667 62.7257 68.6868 61.8837 69.615 60.9459C71.1804 59.4005 72.5552 57.6732 73.71 55.8009C76.0434 51.9837 77.245 47.5824 77.175 43.1091C77.2093 39.7982 76.5661 36.5153 75.285 33.4622C74.0217 30.5199 72.2036 27.8484 69.93 25.5938C67.6542 23.3694 64.9836 21.5889 62.055 20.3438C58.9973 19.0631 55.7098 18.4221 52.395 18.4603C49.0797 18.4242 45.7922 19.0674 42.735 20.3503C39.7743 21.5803 37.0949 23.4001 34.86 25.6987C32.624 27.9626 30.842 30.6335 29.61 33.5672C28.3289 36.6203 27.6857 39.9032 27.72 43.2141C27.72 45.5241 28.035 47.7269 28.665 49.8225C29.295 52.0275 30.135 54.0225 31.29 55.9059C32.34 57.7959 33.81 59.4759 35.385 61.0509C36.33 61.9959 37.38 62.8337 38.535 63.5644C36.1023 64.6474 33.8104 66.0225 31.71 67.6594C28.98 69.7594 26.565 72.2728 24.57 75.0028C22.5899 77.8223 21.0663 80.9361 20.055 84.2297C19.95 84.4397 19.95 84.6497 19.95 84.7547C11.655 76.3613 6.51 65.0344 6.51 52.4475C6.51 27.1688 27.195 6.50344 52.5 6.50344C77.805 6.50344 98.49 27.1688 98.49 52.4475C98.4763 64.5222 93.6818 76.1002 85.155 84.6497Z" fill="#F8F9FA"/>
</svg>
