<svg width="13" height="15" viewBox="0 0 13 15" fill="none" xmlns="http://www.w3.org/2000/svg">
<path d="M1.80002 13.1532L2.07227 12.7716L1.80002 13.1532ZM1.09602 12.4618L1.47285 12.183L1.09602 12.4618ZM11.3363 12.4618L10.9595 12.183L11.3363 12.4618ZM10.6323 13.1532L10.9046 13.5348L10.6323 13.1532ZM10.6323 3.09682L10.9046 2.71524L10.6323 3.09682ZM11.3363 3.78817L10.9595 4.06696L10.9595 4.06696L11.3363 3.78817ZM1.80002 3.09682L2.07227 3.4784L2.07227 3.4784L1.80002 3.09682ZM1.09602 3.78817L1.47285 4.06696L1.47285 4.06696L1.09602 3.78817ZM10.8098 10.0385L10.7378 9.57529L10.7378 9.57529L10.8098 10.0385ZM8.16465 12.6361L7.70188 12.5615L7.70188 12.5615L8.16465 12.6361ZM4.30688 8.28125C4.048 8.28125 3.83813 8.49112 3.83813 8.75C3.83813 9.00888 4.048 9.21875 4.30688 9.21875V8.75V8.28125ZM8.12548 9.21875C8.38436 9.21875 8.59423 9.00888 8.59423 8.75C8.59423 8.49112 8.38436 8.28125 8.12548 8.28125V8.75V9.21875ZM7.65673 3.125C7.65673 3.38388 7.86659 3.59375 8.12548 3.59375C8.38436 3.59375 8.59423 3.38388 8.59423 3.125H8.12548H7.65673ZM8.59423 1.25C8.59423 0.991117 8.38436 0.78125 8.12548 0.78125C7.86659 0.78125 7.65673 0.991117 7.65673 1.25H8.12548H8.59423ZM3.83813 3.125C3.83813 3.38388 4.048 3.59375 4.30688 3.59375C4.56576 3.59375 4.77563 3.38388 4.77563 3.125H4.30688H3.83813ZM4.77563 1.25C4.77563 0.991117 4.56576 0.78125 4.30688 0.78125C4.048 0.78125 3.83813 0.991117 3.83813 1.25H4.30688H4.77563ZM11.9257 10L12.3941 10.0163L11.9257 10ZM0.506692 6.25L0.0382273 6.23366L0.506692 6.25ZM11.9257 6.25L12.3941 6.23366L11.9257 6.25ZM6.21618 13.75V13.2812C5.01269 13.2812 4.14706 13.2806 3.47645 13.2093C2.81412 13.1388 2.39765 13.0038 2.07227 12.7716L1.80002 13.1532L1.52776 13.5348C2.03886 13.8994 2.63725 14.0628 3.37726 14.1415C4.109 14.2194 5.03321 14.2188 6.21618 14.2188V13.75ZM0.488281 8.125H0.0195312C0.0195312 9.28616 0.0188644 10.1954 0.0983256 10.9156C0.178811 11.6451 0.346104 12.2363 0.71919 12.7406L1.09602 12.4618L1.47285 12.183C1.2382 11.8659 1.10162 11.4604 1.03017 10.8128C0.957698 10.1559 0.957031 9.30742 0.957031 8.125H0.488281ZM1.80002 13.1532L2.07227 12.7716C1.84193 12.6073 1.63971 12.4086 1.47285 12.183L1.09602 12.4618L0.71919 12.7406C0.944881 13.0457 1.21781 13.3136 1.52776 13.5348L1.80002 13.1532ZM11.3363 12.4618L10.9595 12.183C10.7926 12.4086 10.5904 12.6073 10.3601 12.7716L10.6323 13.1532L10.9046 13.5348C11.2145 13.3136 11.4875 13.0457 11.7132 12.7406L11.3363 12.4618ZM10.6323 3.09682L10.3601 3.4784C10.5904 3.64275 10.7926 3.84143 10.9595 4.06696L11.3363 3.78817L11.7132 3.50938C11.4875 3.20432 11.2145 2.93639 10.9046 2.71524L10.6323 3.09682ZM1.80002 3.09682L1.52776 2.71524C1.21781 2.93639 0.944882 3.20432 0.71919 3.50938L1.09602 3.78817L1.47285 4.06696C1.63971 3.84143 1.84193 3.64275 2.07227 3.4784L1.80002 3.09682ZM10.8098 10.0385L10.7378 9.57529C9.18032 9.81754 7.95064 11.0191 7.70188 12.5615L8.16465 12.6361L8.62742 12.7108C8.80998 11.5788 9.71611 10.683 10.8819 10.5017L10.8098 10.0385ZM4.30688 8.75V9.21875H8.12548V8.75V8.28125H4.30688V8.75ZM11.9257 10L11.9257 9.53125C11.3635 9.53125 11.0273 9.53027 10.7378 9.57529L10.8098 10.0385L10.8819 10.5017C11.082 10.4705 11.3298 10.4688 11.9257 10.4687L11.9257 10ZM11.9441 8.125H11.4753C11.4753 8.85822 11.4753 9.46585 11.4572 9.98366L11.9257 10L12.3941 10.0163C12.4129 9.47871 12.4128 8.85294 12.4128 8.125H11.9441ZM11.9257 10L11.4572 9.98366C11.4168 11.1423 11.2852 11.7428 10.9595 12.183L11.3363 12.4618L11.7132 12.7406C12.224 12.0501 12.3533 11.1879 12.3941 10.0163L11.9257 10ZM8.12548 13.7319L8.59423 13.7319C8.59423 13.1458 8.59612 12.9049 8.62742 12.7108L8.16465 12.6361L7.70188 12.5615C7.65565 12.8481 7.65673 13.1808 7.65673 13.7319L8.12548 13.7319ZM6.21618 13.75V14.2188C6.95757 14.2188 7.59431 14.2188 8.14124 14.2004L8.12548 13.7319L8.10971 13.2634C7.58191 13.2812 6.96267 13.2812 6.21618 13.2812V13.75ZM8.12548 13.7319L8.14124 14.2004C9.33281 14.1603 10.2052 14.0338 10.9046 13.5348L10.6323 13.1532L10.3601 12.7716C9.90802 13.0941 9.291 13.2237 8.10971 13.2634L8.12548 13.7319ZM0.488281 8.125H0.957031C0.957031 7.39178 0.957092 6.78415 0.975157 6.26634L0.506692 6.25L0.0382273 6.23366C0.0194704 6.77129 0.0195312 7.39706 0.0195312 8.125H0.488281ZM0.506692 6.25L0.975157 6.26634C1.01558 5.10769 1.14714 4.50721 1.47285 4.06696L1.09602 3.78817L0.71919 3.50938C0.208331 4.19988 0.0791013 5.06208 0.0382273 6.23366L0.506692 6.25ZM0.506692 6.25V6.71875H11.9257V6.25V5.78125H0.506692V6.25ZM11.9441 8.125H12.4128C12.4128 7.39706 12.4129 6.77129 12.3941 6.23366L11.9257 6.25L11.4572 6.26634C11.4753 6.78415 11.4753 7.39178 11.4753 8.125H11.9441ZM11.9257 6.25L12.3941 6.23366C12.3533 5.06208 12.224 4.19988 11.7132 3.50938L11.3363 3.78817L10.9595 4.06696C11.2852 4.50721 11.4168 5.10769 11.4572 6.26634L11.9257 6.25ZM8.12548 3.125H8.59423V2.51808H8.12548H7.65673V3.125H8.12548ZM8.12548 2.51808H8.59423V1.25H8.12548H7.65673V2.51808H8.12548ZM6.21618 2.5V2.96875C6.96267 2.96875 7.58191 2.96881 8.10971 2.98657L8.12548 2.51808L8.14124 2.0496C7.59431 2.03119 6.95757 2.03125 6.21618 2.03125V2.5ZM8.12548 2.51808L8.10971 2.98657C9.291 3.02631 9.90802 3.15586 10.3601 3.4784L10.6323 3.09682L10.9046 2.71524C10.2052 2.21624 9.33281 2.08969 8.14124 2.0496L8.12548 2.51808ZM4.30688 3.125H4.77563V2.51808H4.30688H3.83813V3.125H4.30688ZM4.30688 2.51808H4.77563V1.25H4.30688H3.83813V2.51808H4.30688ZM6.21618 2.5V2.03125C5.47478 2.03125 4.83805 2.03119 4.29112 2.0496L4.30688 2.51808L4.32264 2.98657C4.85045 2.96881 5.46969 2.96875 6.21618 2.96875V2.5ZM4.30688 2.51808L4.29112 2.0496C3.09954 2.08969 2.22714 2.21624 1.52776 2.71524L1.80002 3.09682L2.07227 3.4784C2.52433 3.15586 3.14136 3.02631 4.32264 2.98657L4.30688 2.51808Z" fill="#2E2E2E"/>
</svg>
