<svg width="24" height="24" viewBox="0 0 24 24" fill="none" xmlns="http://www.w3.org/2000/svg">
<path fill-rule="evenodd" clip-rule="evenodd" d="M14.0237 4.7226L14.1137 4.7746C14.8918 5.22381 15.5407 5.5984 16.0158 5.96504C16.5173 6.35204 16.9153 6.79623 17.082 7.41842C17.2487 8.0406 17.1261 8.6243 16.8853 9.21019C16.6572 9.76526 16.2826 10.4141 15.8333 11.1922L11.9578 17.9049C11.6608 18.4202 11.4261 18.8276 11.0687 19.1347C10.7113 19.4417 10.2732 19.6125 9.71906 19.8285L9.56932 19.8869C8.5411 20.2887 7.69355 20.6198 6.99949 20.782C6.2736 20.9516 5.57274 20.9727 4.91947 20.5955C4.2662 20.2183 3.93404 19.6008 3.71797 18.8874C3.51137 18.2052 3.37439 17.3057 3.2082 16.2143L3.18395 16.0554C3.09392 15.4675 3.02273 15.0027 3.10996 14.5397C3.12087 14.4818 3.13409 14.4248 3.14946 14.3684C3.25704 13.9733 3.46988 13.6053 3.73045 13.1548L7.60606 6.44218C8.05528 5.66406 8.42987 5.01521 8.79651 4.5401C9.1835 4.03861 9.6277 3.64058 10.2499 3.47387C10.8721 3.30716 11.4558 3.42976 12.0417 3.67056C12.5967 3.8987 13.2456 4.27333 14.0237 4.7226ZM8.5041 7.88674L14.1333 11.1367L10.7098 17.0663C10.3369 17.7123 10.2302 17.8775 10.0911 17.997C9.95206 18.1165 9.77271 18.197 9.07794 18.4685C7.98147 18.8969 7.2347 19.1866 6.65823 19.3213C6.10135 19.4514 5.84866 19.3999 5.66947 19.2965C5.49027 19.193 5.31933 18.9999 5.15357 18.4526C4.98198 17.886 4.85954 17.0944 4.6823 15.9306C4.56999 15.1932 4.55008 14.9976 4.58403 14.8174C4.61798 14.6372 4.70771 14.4623 5.08067 13.8163L8.5041 7.88674ZM15.498 8.63997C15.3654 8.9624 15.1628 9.34153 14.8817 9.83679L9.25567 6.58861C9.54406 6.09757 9.77105 5.73249 9.98403 5.4565C10.2685 5.08789 10.4601 4.97046 10.6381 4.92276C10.8161 4.87506 11.0408 4.88095 11.4714 5.05795C11.9222 5.24323 12.4838 5.56563 13.3187 6.04764C14.1535 6.52964 14.7136 6.8548 15.0994 7.15256C15.468 7.43702 15.5854 7.62863 15.6331 7.80664C15.6808 7.98466 15.675 8.20931 15.498 8.63997Z" fill="#2D264B"/>
<path d="M12.6606 20.2509C12.6606 19.8367 12.9964 19.5009 13.4106 19.5009H19.4106C19.8249 19.5009 20.1606 19.8367 20.1606 20.2509C20.1606 20.6651 19.8249 21.0009 19.4106 21.0009H13.4106C12.9964 21.0009 12.6606 20.6651 12.6606 20.2509Z" fill="#2D264B"/>
</svg>
