<svg width="30" height="30" viewBox="0 0 30 30" fill="none" xmlns="http://www.w3.org/2000/svg">
<g clip-path="url(#clip0_1001_5190)">
<path d="M15 0C6.71572 0 0 6.71572 0 15C0 23.2843 6.71572 30 15 30C23.2843 30 30 23.2843 30 15C29.991 6.71941 23.2806 0.00896484 15 0ZM20 18.2337C20.5079 18.7012 20.5407 19.492 20.0732 20C19.6057 20.5079 18.8149 20.5407 18.307 20.0732C18.2815 20.0498 18.2572 20.0254 18.2337 20L15 16.7675L11.7675 20C11.2709 20.4796 10.4796 20.4658 10 19.9692C9.53221 19.4848 9.53221 18.7169 10 18.2325L13.2325 15L10 11.7675C9.52043 11.2709 9.5342 10.4796 10.0308 10C10.5152 9.53221 11.2831 9.53221 11.7675 10L15 13.2325L18.2337 10C18.7012 9.49207 19.492 9.45926 20 9.92678C20.5079 10.3943 20.5407 11.1851 20.0732 11.693C20.0498 11.7185 20.0254 11.7428 20 11.7663L16.7675 15L20 18.2337Z" fill="#D11A22"/>
</g>
<defs>
<clipPath id="clip0_1001_5190">
<rect width="30" height="30" fill="white"/>
</clipPath>
</defs>
</svg>
