<svg width="30" height="30" viewBox="0 0 30 30" fill="none" xmlns="http://www.w3.org/2000/svg">
<path d="M19.6875 16.25C19.6875 16.0014 19.5887 15.7629 19.4129 15.5871C19.2371 15.4113 18.9986 15.3125 18.75 15.3125H11.25C11.0014 15.3125 10.7629 15.4113 10.5871 15.5871C10.4113 15.7629 10.3125 16.0014 10.3125 16.25C10.3125 16.4986 10.4113 16.7371 10.5871 16.9129C10.7629 17.0887 11.0014 17.1875 11.25 17.1875H18.75C18.9986 17.1875 19.2371 17.0887 19.4129 16.9129C19.5887 16.7371 19.6875 16.4986 19.6875 16.25ZM19.6875 21.25C19.6875 21.0014 19.5887 20.7629 19.4129 20.5871C19.2371 20.4113 18.9986 20.3125 18.75 20.3125H11.25C11.0014 20.3125 10.7629 20.4113 10.5871 20.5871C10.4113 20.7629 10.3125 21.0014 10.3125 21.25C10.3125 21.4986 10.4113 21.7371 10.5871 21.9129C10.7629 22.0887 11.0014 22.1875 11.25 22.1875H18.75C18.9986 22.1875 19.2371 22.0887 19.4129 21.9129C19.5887 21.7371 19.6875 21.4986 19.6875 21.25Z" fill="white"/>
<path fill-rule="evenodd" clip-rule="evenodd" d="M8.75 2.8125C7.83832 2.8125 6.96398 3.17466 6.31932 3.81932C5.67466 4.46398 5.3125 5.33832 5.3125 6.25V23.75C5.3125 24.6617 5.67466 25.536 6.31932 26.1807C6.96398 26.8253 7.83832 27.1875 8.75 27.1875H21.25C22.1617 27.1875 23.036 26.8253 23.6807 26.1807C24.3253 25.536 24.6875 24.6617 24.6875 23.75V9.96C24.6875 9.48375 24.5325 9.02125 24.245 8.64125L20.4975 3.68125C20.2936 3.4114 20.0299 3.1925 19.7271 3.04176C19.4243 2.89102 19.0907 2.81255 18.7525 2.8125H8.75ZM7.1875 6.25C7.1875 5.3875 7.8875 4.6875 8.75 4.6875H17.8125V10.1837C17.8125 10.7012 18.2325 11.1212 18.75 11.1212H22.8125V23.75C22.8125 24.6125 22.1125 25.3125 21.25 25.3125H8.75C7.8875 25.3125 7.1875 24.6125 7.1875 23.75V6.25Z" fill="white"/>
</svg>
