<svg width="25" height="24" viewBox="0 0 25 24" fill="none" xmlns="http://www.w3.org/2000/svg">
<path d="M11.9647 19.1997C12.3847 19.1997 12.7407 19.0545 13.0326 18.7641C13.3245 18.4737 13.4712 18.1189 13.4726 17.6997C13.4739 17.2805 13.331 16.9254 13.0437 16.6342C12.7564 16.343 12.402 16.1982 11.9804 16.1998C11.5588 16.2014 11.2032 16.3466 10.9137 16.6354C10.6242 16.9242 10.4772 17.2789 10.4726 17.6997C10.468 18.1205 10.6113 18.4757 10.9026 18.7653C11.1939 19.0549 11.5479 19.1997 11.9647 19.1997ZM10.9089 14.5798H13.1289C13.1323 13.9198 13.2102 13.3998 13.3626 13.0198C13.515 12.6398 13.9425 12.1198 14.6451 11.4598C15.1679 10.9398 15.5804 10.4447 15.8829 9.97426C16.1854 9.50386 16.3383 8.93907 16.3418 8.27988C16.3476 7.1599 15.9421 6.29991 15.1252 5.69992C14.3084 5.09993 13.3399 4.79993 12.2199 4.79993C11.0799 4.79993 10.1536 5.09993 9.44083 5.69992C8.7281 6.29991 8.22914 7.0199 7.94395 7.85989L9.91988 8.63988C10.0218 8.27988 10.249 7.88989 10.6016 7.4699C10.9542 7.0499 11.4901 6.8399 12.2093 6.8399C12.8493 6.8399 13.3284 7.0151 13.6465 7.3655C13.9647 7.71589 14.1227 8.10069 14.1205 8.51988C14.1184 8.91987 13.9965 9.29507 13.7546 9.64546C13.5128 9.99586 13.2111 10.3207 12.8495 10.6198C11.9655 11.3998 11.4224 11.9898 11.2203 12.3898C11.0182 12.7898 10.9144 13.5198 10.9089 14.5798ZM11.9997 23.9996C10.3397 23.9996 8.78131 23.6849 7.3246 23.0553C5.86789 22.4257 4.60235 21.5705 3.528 20.4897C2.45364 19.4089 1.60548 18.1389 0.983496 16.6798C0.361517 15.2206 0.0544632 13.6606 0.0623361 11.9998C0.070209 10.3391 0.393555 8.77908 1.03238 7.3199C1.67119 5.86072 2.53263 4.59074 3.61667 3.50995C4.70071 2.42917 5.97518 1.57438 7.44006 0.945592C8.90494 0.316801 10.4666 0.00160604 12.125 6.06051e-06C13.7834 -0.00159392 15.3418 0.313602 16.8001 0.945592C18.2583 1.57758 19.5239 2.43237 20.5967 3.50995C21.6694 4.58754 22.518 5.85752 23.1424 7.3199C23.7667 8.78228 24.0734 10.3423 24.0623 11.9998C24.0513 13.6574 23.7279 15.2174 23.0923 16.6798C22.4566 18.1421 21.5952 19.4121 20.508 20.4897C19.4208 21.5673 18.1463 22.4225 16.6846 23.0553C15.2229 23.6881 13.6612 24.0029 11.9997 23.9996ZM12.0122 21.5997C14.6922 21.5997 16.967 20.6697 18.8368 18.8097C20.7065 16.9498 21.6483 14.6798 21.6623 11.9998C21.6763 9.31987 20.7582 7.0499 18.9079 5.18993C17.0576 3.32996 14.7925 2.39997 12.1125 2.39997C9.43246 2.39997 7.15761 3.32996 5.2879 5.18993C3.41818 7.0499 2.47633 9.31987 2.46233 11.9998C2.44834 14.6798 3.36648 16.9498 5.21677 18.8097C7.06706 20.6697 9.3322 21.5997 12.0122 21.5997Z" fill="#2E2E2E"/>
</svg>
