<svg width="24" height="24" viewBox="0 0 24 24" fill="none" xmlns="http://www.w3.org/2000/svg">
<path d="M2.76647 15.8197L3.47976 15.5879L2.76647 15.8197ZM1.65596 9.65157L2.37727 9.85703L1.65596 9.65157ZM6.29318 4.96556L5.85234 4.3588L6.29318 4.96556ZM1.76925 9.30291L2.47357 9.56067L1.76925 9.30291ZM5.79015 21.678L5.37185 22.3005L5.79015 21.678ZM5.49356 21.4625L5.03078 22.0527L5.49356 21.4625ZM21.2326 15.8197L20.5193 15.5879L21.2326 15.8197ZM18.5055 21.4625L18.9683 22.0527L18.5055 21.4625ZM18.2089 21.678L18.6272 22.3005L18.2089 21.678ZM17.7059 4.96556L18.1467 4.3588L17.7059 4.96556ZM22.2298 9.30291L21.5255 9.56067L22.2298 9.30291ZM22.3431 9.65157L21.6218 9.85703L22.3431 9.65157ZM12.1828 2.00336L12.1553 2.75286L12.1828 2.00336ZM11.8162 2.00336L11.8437 2.75286L11.8162 2.00336ZM11.2495 19.8197C11.2495 20.2339 11.5853 20.5697 11.9995 20.5697C12.4137 20.5697 12.7495 20.2339 12.7495 19.8197H11.9995H11.2495ZM12.7495 17.8197C12.7495 17.4054 12.4137 17.0697 11.9995 17.0697C11.5853 17.0697 11.2495 17.4054 11.2495 17.8197H11.9995H12.7495ZM15.9995 22.4063L16.0897 23.1509L15.9995 22.4063ZM2.76647 15.8197L3.47976 15.5879C2.96541 14.0049 2.59902 12.874 2.40676 11.9558C2.21812 11.055 2.21405 10.4301 2.37727 9.85703L1.65596 9.65157L0.934654 9.44611C0.680434 10.3386 0.722296 11.2303 0.938607 12.2633C1.15131 13.2791 1.54889 14.4994 2.05317 16.0514L2.76647 15.8197ZM6.29318 4.96556L5.85234 4.3588C4.53212 5.31799 3.49316 6.07158 2.72402 6.76835C1.94183 7.47693 1.38386 8.17368 1.06493 9.04515L1.76925 9.30291L2.47357 9.56067C2.67834 9.00112 3.04893 8.49798 3.73108 7.88002C4.42627 7.25026 5.38742 6.55068 6.73402 5.57232L6.29318 4.96556ZM1.65596 9.65157L2.37727 9.85703C2.40574 9.7571 2.43786 9.65824 2.47357 9.56067L1.76925 9.30291L1.06493 9.04515C1.01662 9.17717 0.973164 9.31091 0.934654 9.44611L1.65596 9.65157ZM2.76647 15.8197L2.05317 16.0514C2.55745 17.6034 2.95311 18.8244 3.37809 19.7712C3.81028 20.7341 4.30051 21.4801 5.03078 22.0527L5.49356 21.4625L5.95635 20.8723C5.48747 20.5046 5.12347 19.9967 4.74656 19.157C4.36244 18.3012 3.99411 17.1709 3.47976 15.5879L2.76647 15.8197ZM5.79015 21.678L6.20845 21.0555C6.1222 20.9975 6.03811 20.9364 5.95635 20.8723L5.49356 21.4625L5.03078 22.0527C5.1414 22.1394 5.25517 22.2221 5.37185 22.3005L5.79015 21.678ZM21.2326 15.8197L20.5193 15.5879C20.0049 17.1709 19.6366 18.3012 19.2525 19.157C18.8756 19.9967 18.5116 20.5046 18.0427 20.8723L18.5055 21.4625L18.9683 22.0527C19.6985 21.4801 20.1888 20.7341 20.6209 19.7712C21.0459 18.8244 21.4416 17.6034 21.9459 16.0514L21.2326 15.8197ZM18.5055 21.4625L18.0427 20.8723C17.9609 20.9364 17.8768 20.9975 17.7906 21.0555L18.2089 21.678L18.6272 22.3005C18.7439 22.2221 18.8576 22.1394 18.9683 22.0527L18.5055 21.4625ZM17.7059 4.96556L17.265 5.57232C18.6116 6.55068 19.5728 7.25026 20.268 7.88002C20.9501 8.49798 21.3207 9.00112 21.5255 9.56067L22.2298 9.30291L22.9341 9.04515C22.6152 8.17368 22.0572 7.47693 21.275 6.76835C20.5059 6.07158 19.4669 5.31799 18.1467 4.3588L17.7059 4.96556ZM21.2326 15.8197L21.9459 16.0514C22.4501 14.4994 22.8477 13.2791 23.0604 12.2633C23.2767 11.2303 23.3186 10.3386 23.0644 9.44611L22.3431 9.65157L21.6218 9.85703C21.785 10.4301 21.7809 11.055 21.5923 11.9558C21.4 12.874 21.0336 14.0049 20.5193 15.5879L21.2326 15.8197ZM22.2298 9.30291L21.5255 9.56067C21.5612 9.65824 21.5933 9.75709 21.6218 9.85703L22.3431 9.65157L23.0644 9.44611C23.0259 9.31091 22.9824 9.17717 22.9341 9.04515L22.2298 9.30291ZM17.7059 4.96556L18.1467 4.3588C16.8265 3.3996 15.7887 2.64436 14.8884 2.12818C13.9728 1.60323 13.1377 1.28789 12.2103 1.25387L12.1828 2.00336L12.1553 2.75286C12.7508 2.7747 13.3438 2.97167 14.1423 3.42948C14.9561 3.89603 15.9184 4.59396 17.265 5.57232L17.7059 4.96556ZM6.29318 4.96556L6.73402 5.57232C8.08061 4.59396 9.04296 3.89603 9.85673 3.42948C10.6552 2.97167 11.2483 2.7747 11.8437 2.75286L11.8162 2.00336L11.7887 1.25387C10.8613 1.28789 10.0263 1.60323 9.11066 2.12818C8.21032 2.64436 7.17256 3.3996 5.85234 4.3588L6.29318 4.96556ZM12.1828 2.00336L12.2103 1.25387C12.0698 1.24871 11.9292 1.24871 11.7887 1.25387L11.8162 2.00336L11.8437 2.75286C11.9475 2.74905 12.0515 2.74905 12.1553 2.75286L12.1828 2.00336ZM15.9995 17.8197H15.2495V21.8197H15.9995H16.7495V17.8197H15.9995ZM7.99952 21.8197H8.74952V17.8197H7.99952H7.24952V21.8197H7.99952ZM11.9995 13.8197V14.5697C13.7944 14.5697 15.2495 16.0247 15.2495 17.8197H15.9995H16.7495C16.7495 15.1963 14.6229 13.0697 11.9995 13.0697V13.8197ZM11.9995 13.8197V13.0697C9.37616 13.0697 7.24952 15.1963 7.24952 17.8197H7.99952H8.74952C8.74952 16.0247 10.2046 14.5697 11.9995 14.5697V13.8197ZM11.9995 19.8197H12.7495V17.8197H11.9995H11.2495V19.8197H11.9995ZM11.9995 22.5279V23.2779C13.7046 23.2779 15.031 23.2791 16.0897 23.1509L15.9995 22.4063L15.9093 21.6618C14.9616 21.7766 13.7419 21.7779 11.9995 21.7779V22.5279ZM15.9995 22.4063L16.0897 23.1509C17.0752 23.0315 17.8925 22.7942 18.6272 22.3005L18.2089 21.678L17.7906 21.0555C17.3185 21.3727 16.7544 21.5594 15.9093 21.6618L15.9995 22.4063ZM15.9995 21.8197H15.2495V22.4063H15.9995H16.7495V21.8197H15.9995ZM11.9995 22.5279V21.7779C10.2571 21.7779 9.0374 21.7766 8.08971 21.6618L7.99952 22.4063L7.90932 23.1509C8.96807 23.2791 10.2944 23.2779 11.9995 23.2779V22.5279ZM7.99952 22.4063L8.08971 21.6618C7.24465 21.5594 6.68058 21.3727 6.20845 21.0555L5.79015 21.678L5.37185 22.3005C6.10656 22.7942 6.92384 23.0315 7.90932 23.1509L7.99952 22.4063ZM7.99952 21.8197H7.24952V22.4063H7.99952H8.74952V21.8197H7.99952Z" fill="#D11A22"/>
</svg>
