<svg width="19" height="24" viewBox="0 0 19 24" fill="none" xmlns="http://www.w3.org/2000/svg">
<path fill-rule="evenodd" clip-rule="evenodd" d="M12.6284 21.163C15.2269 17.8495 18.5 13.0354 18.5 9.80978C18.5 4.46102 14.4706 0.125 9.5 0.125C4.52944 0.125 0.5 4.46102 0.5 9.80978C0.5 13.0354 3.77313 17.8495 6.37161 21.163C7.72728 22.8918 8.40511 23.7562 9.5 23.7562C10.5949 23.7562 11.2727 22.8918 12.6284 21.163ZM6.125 9.40625C5.65901 9.40625 5.28125 9.78401 5.28125 10.25C5.28125 10.716 5.65901 11.0938 6.125 11.0938H12.875C13.341 11.0938 13.7188 10.716 13.7188 10.25C13.7188 9.78401 13.341 9.40625 12.875 9.40625H6.125Z" fill="#F8F9FA"/>
</svg>
