<svg width="19" height="17" viewBox="0 0 19 17" fill="none" xmlns="http://www.w3.org/2000/svg">
<path d="M5.81538 0C4.88812 0.124857 3.98463 0.489659 3.19846 1.09434L1.06615 2.73438C0.394994 3.2506 0 4.06075 0 4.92111V13.4981C0 15.6977 2.44867 16.9533 4.16457 15.6335C4.66421 15.2492 5.23002 15.0012 5.81538 14.8895V0Z" fill="white"/>
<path d="M7.26923 14.8895C7.8546 15.0012 8.42041 15.2492 8.92005 15.6335L9.01384 15.7057C9.80001 16.3103 10.7035 16.6751 11.6308 16.8V1.91053C11.0454 1.79878 10.4796 1.55078 9.97995 1.16648L9.88615 1.09434C9.09998 0.489659 8.1965 0.124857 7.26923 2.7383e-10V14.8895Z" fill="white"/>
<path d="M13.0846 1.91053V16.8C14.0119 16.6751 14.9154 16.3103 15.7015 15.7057L17.8338 14.0656C18.505 13.5494 18.9 12.7392 18.9 11.8789V3.30191C18.9 1.1023 16.4513 -0.153288 14.7354 1.16648C14.2358 1.55078 13.67 1.79878 13.0846 1.91053Z" fill="white"/>
</svg>
