<svg width="14" height="18" viewBox="0 0 14 18" fill="none" xmlns="http://www.w3.org/2000/svg">
<path fill-rule="evenodd" clip-rule="evenodd" d="M8.98512 15.5859C10.9102 13.1311 13.335 9.56459 13.335 7.17491C13.335 3.21232 10.3499 0 6.6675 0C2.98514 0 0 3.21232 0 7.17491C0 9.56459 2.42485 13.1311 4.34988 15.5859C5.35421 16.8666 5.85637 17.507 6.6675 17.507C7.47863 17.507 7.98079 16.8666 8.98512 15.5859ZM6.6675 10.0014C5.28662 10.0014 4.16719 8.88195 4.16719 7.50104C4.16719 6.12014 5.28662 5.0007 6.6675 5.0007C8.04838 5.0007 9.16781 6.12014 9.16781 7.50104C9.16781 8.88195 8.04838 10.0014 6.6675 10.0014Z" fill="white"/>
</svg>
