<svg width="20" height="25" viewBox="0 0 20 25" fill="none" xmlns="http://www.w3.org/2000/svg">
<path fill-rule="evenodd" clip-rule="evenodd" d="M12.8359 22.2656C15.5859 18.7587 19.05 13.6637 19.05 10.2499C19.05 4.58902 14.7855 0 9.525 0C4.26449 0 0 4.58902 0 10.2499C0 13.6637 3.46407 18.7587 6.21412 22.2656C7.64887 24.0952 8.36624 25.01 9.525 25.01C10.6838 25.01 11.4011 24.0952 12.8359 22.2656ZM9.525 14.2877C7.55231 14.2877 5.95312 12.6885 5.95312 10.7158C5.95312 8.74306 7.55231 7.14385 9.525 7.14385C11.4977 7.14385 13.0969 8.74306 13.0969 10.7158C13.0969 12.6885 11.4977 14.2877 9.525 14.2877Z" fill="#F8F9FA"/>
</svg>
