<svg width="27" height="24" viewBox="0 0 27 24" fill="none" xmlns="http://www.w3.org/2000/svg">
<path d="M8.30769 0C6.98302 0.178368 5.69233 0.699513 4.56923 1.56334L1.52308 3.90626C0.564278 4.64371 0 5.80107 0 7.03016V19.283C0 22.4253 3.4981 24.219 5.94938 22.3336C6.66316 21.7846 7.47146 21.4303 8.30769 21.2707V0Z" fill="#305D9F"/>
<path d="M10.3846 21.2707C11.2209 21.4303 12.0292 21.7846 12.7429 22.3336L12.8769 22.4367C14 23.3005 15.2907 23.8216 16.6154 24V2.72934C15.7791 2.56968 14.9709 2.2154 14.2571 1.6664L14.1231 1.56334C13 0.699513 11.7093 0.178368 10.3846 3.91185e-10V21.2707Z" fill="#305D9F"/>
<path d="M18.6923 2.72934V24C20.017 23.8216 21.3077 23.3005 22.4308 22.4367L25.4769 20.0937C26.4357 19.3563 27 18.1989 27 16.9698V4.71701C27 1.57471 23.5019 -0.218982 21.0506 1.6664C20.3368 2.2154 19.5285 2.56968 18.6923 2.72934Z" fill="#305D9F"/>
</svg>
