<svg width="230" height="165" viewBox="0 0 230 165" fill="none" xmlns="http://www.w3.org/2000/svg">
<g clip-path="url(#clip0_712_5280)">
<path d="M38.5956 158.384C38.4113 158.393 38.2289 158.345 38.073 158.246C37.9171 158.148 37.7954 158.004 37.7242 157.835C37.653 157.665 37.6359 157.478 37.6751 157.299C37.7144 157.119 37.8081 156.956 37.9435 156.831L38.0052 156.587C37.9971 156.567 37.9889 156.548 37.9807 156.528C37.795 156.092 37.4839 155.719 37.0865 155.458C36.689 155.197 36.2229 155.058 35.7467 155.06C35.2706 155.062 34.8055 155.204 34.41 155.468C34.0145 155.732 33.7062 156.107 33.5238 156.545C32.7949 158.294 31.8668 160.045 31.6383 161.894C31.5377 162.712 31.5801 163.54 31.7638 164.343C30.0517 160.623 29.1627 156.58 29.1569 152.487C29.1566 151.46 29.2139 150.434 29.3285 149.414C29.4233 148.577 29.5547 147.746 29.7229 146.922C30.6405 142.447 32.6107 138.252 35.4717 134.683C36.8564 133.93 37.9763 132.773 38.6803 131.367C38.9354 130.862 39.1156 130.322 39.2155 129.765C39.0593 129.786 38.6265 127.416 38.7443 127.271C38.5267 126.942 38.137 126.778 37.8993 126.457C36.7169 124.86 35.0879 125.139 34.2374 127.309C32.4207 128.222 32.4031 129.737 33.5179 131.194C34.2271 132.12 34.3245 133.375 34.9468 134.367C34.8827 134.448 34.8162 134.527 34.7521 134.609C33.5819 136.108 32.5619 137.718 31.7069 139.415C31.9148 137.513 31.6666 135.59 30.9827 133.803C30.2896 132.138 28.9905 130.735 27.8465 129.295C26.4724 127.566 23.6545 128.32 23.4124 130.513C23.4101 130.534 23.4078 130.555 23.4055 130.576C23.5755 130.672 23.7418 130.773 23.9046 130.88C24.109 131.016 24.2674 131.211 24.3591 131.438C24.4507 131.665 24.4713 131.915 24.4181 132.154C24.3649 132.393 24.2404 132.611 24.061 132.778C23.8816 132.946 23.6555 133.055 23.4125 133.093L23.3876 133.097C23.4482 133.707 23.5552 134.311 23.7077 134.905C22.2401 140.559 25.4086 142.618 29.9328 142.71C30.0327 142.761 30.13 142.812 30.2299 142.861C29.3708 145.286 28.832 147.812 28.6269 150.375C28.5108 151.888 28.5176 153.407 28.6474 154.918L28.6397 154.865C28.3119 153.184 27.4119 151.668 26.0917 150.572C24.1309 148.967 21.3607 148.376 19.2454 147.087C19.0206 146.943 18.7592 146.866 18.492 146.866C18.2249 146.865 17.9631 146.94 17.7376 147.083C17.5121 147.226 17.3323 147.43 17.2193 147.671C17.1063 147.912 17.0649 148.18 17.1 148.444C17.1029 148.463 17.1057 148.482 17.1087 148.5C17.424 148.628 17.731 148.776 18.028 148.942C18.1979 149.037 18.3642 149.139 18.527 149.246C18.7314 149.382 18.8899 149.576 18.9815 149.804C19.0731 150.031 19.0937 150.28 19.0405 150.52C18.9873 150.759 18.8629 150.976 18.6834 151.144C18.504 151.311 18.278 151.421 18.0349 151.458L18.01 151.462C17.9921 151.464 17.9767 151.467 17.9588 151.47C18.4976 152.751 19.2538 153.931 20.1944 154.956C21.112 159.892 25.0535 160.36 29.2696 158.923H29.2722C29.7348 160.925 30.405 162.874 31.2721 164.739H38.4165C38.4422 164.659 38.4652 164.578 38.4883 164.499C37.827 164.54 37.163 164.501 36.5114 164.381C37.0414 163.734 37.5715 163.081 38.1016 162.433C38.1134 162.421 38.1245 162.408 38.1349 162.394C38.4038 162.063 38.6752 161.734 38.9441 161.402L38.9442 161.402C38.9585 160.385 38.8412 159.371 38.5956 158.384Z" fill="#F2F2F2"/>
<path d="M46.8125 164.579H58.3414C60.3132 157.966 58.3519 142.337 60.9509 135.948C65.9372 123.7 72.3073 110.776 84.1968 104.795C89.2732 102.242 94.8083 101.244 100.461 101.299C108.27 101.372 116.298 103.46 123.648 106.227C126.655 107.357 129.634 108.599 132.602 109.868C143.782 114.653 154.84 119.865 166.863 121.274C182.076 123.056 199.964 116.275 204.119 101.671C207.29 90.4899 201.579 78.8818 195.589 68.8959C189.599 58.91 182.904 48.2255 183.997 36.664C184.001 36.6252 184.005 36.5824 184.013 36.5436C184.425 32.3909 186.914 29.4065 190.391 27.4932H175.252C175.052 38.2785 181.316 47.7986 186.953 57.1985C192.943 67.1805 198.654 78.7925 195.483 89.9737C191.328 104.574 156.92 87.4594 141.707 85.6742C137.41 85.1735 144.235 86.9549 140.139 85.6742C133.714 83.6677 133.001 102.071 126.749 99.3697C122.856 97.6853 118.96 96.0126 115.012 94.5262C113.378 93.9091 111.708 93.3308 110.018 92.7953C110.017 92.7952 110.015 92.7948 110.014 92.7941C110.012 92.7934 110.011 92.7925 110.01 92.7914C98.6657 89.2131 86.2587 87.8198 75.7765 92.9932C75.706 93.0281 75.6315 93.063 75.5609 93.098C63.6714 99.0748 57.3013 111.999 52.315 124.247C48.195 134.373 48.8431 153.899 46.8125 164.579Z" fill="#F2F2F2"/>
<path d="M115.153 164.241C58.8881 165.428 57.6543 140.878 57.6543 111.677C57.6543 82.476 83.3117 59.6328 115.106 59.6328C146.901 59.6328 172.152 82.4675 172.152 111.668C172.152 140.868 146.948 164.241 115.153 164.241Z" fill="white"/>
<path d="M114.833 164.56C58.5678 165.747 57.334 141.197 57.334 111.996C57.334 82.7952 83.2009 59.0396 114.995 59.0396C146.79 59.0396 172.657 82.7959 172.657 111.996C172.657 141.196 146.628 164.56 114.833 164.56ZM114.995 60.4967C84.0755 60.4967 59.4413 83.6033 58.9206 111.996C58.4363 138.405 88.9837 171.359 114.995 163.496C128.945 149.387 168.383 134.19 171.07 111.996C174.487 83.7731 145.915 60.4967 114.995 60.4967Z" fill="#3F3D56"/>
<path d="M1.68828e-06 164.62C-0.000147678 164.67 0.00961551 164.72 0.0287296 164.766C0.0478437 164.812 0.0759314 164.854 0.111377 164.889C0.146823 164.924 0.188926 164.952 0.235266 164.971C0.281606 164.99 0.331268 165 0.381394 165H229.619C229.72 165 229.817 164.96 229.888 164.889C229.96 164.817 230 164.721 230 164.62C230 164.519 229.96 164.423 229.888 164.352C229.817 164.28 229.72 164.24 229.619 164.24H0.381394C0.331268 164.24 0.281607 164.25 0.235268 164.269C0.188928 164.288 0.146825 164.316 0.11138 164.351C0.0759345 164.386 0.0478467 164.428 0.0287322 164.475C0.00961766 164.521 -0.000146402 164.57 1.68828e-06 164.62Z" fill="#CCCCCC"/>
<path d="M154.463 159.758H150.504L148.621 144.548L154.464 144.549L154.463 159.758Z" fill="#A0616A"/>
<path d="M154.603 163.872L142.43 163.871V163.718C142.43 162.466 142.929 161.266 143.818 160.381C144.706 159.496 145.911 158.998 147.168 158.998L149.392 157.318L153.54 158.998L154.603 158.999L154.603 163.872Z" fill="#2F2E41"/>
<path d="M148.448 124.502C143.927 120.13 138.732 116.507 133.061 113.773L130.168 117.026L132.01 113.278C124.419 109.825 116.178 108.017 107.833 107.973C99.4872 107.929 91.2275 109.651 83.5999 113.024L85.1029 116.275L82.795 113.385C76.8369 116.146 71.3844 119.88 66.6633 124.433C66.178 124.883 65.8782 125.498 65.8221 126.156C65.7979 126.514 65.851 126.872 65.978 127.208C66.105 127.543 66.3028 127.848 66.5581 128.101C67.2855 128.444 68.3221 129.231 69.8621 131.391C70.3344 131.855 70.97 132.117 71.6333 132.121C72.2967 132.126 72.9354 131.871 73.4134 131.413C82.5596 122.594 94.7902 117.664 107.52 117.664C120.249 117.664 132.48 122.594 141.626 131.413C142.104 131.871 142.743 132.126 143.406 132.121C144.069 132.117 144.705 131.855 145.177 131.391C146.727 130.003 147.089 128.04 148.42 128.161C148.889 127.709 149.174 127.101 149.219 126.452C149.239 126.091 149.18 125.73 149.047 125.394C148.914 125.057 148.71 124.753 148.448 124.502Z" fill="#D11A22"/>
<path d="M118.268 129.235L114.309 129.235L112.426 114.025L118.268 114.026L118.268 129.235Z" fill="#A0616A"/>
<path d="M118.408 133.349L106.234 133.348V133.195C106.234 131.943 106.734 130.743 107.622 129.858C108.511 128.973 109.716 128.475 110.973 128.475L113.196 126.795L117.345 128.476L118.408 128.476L118.408 133.349Z" fill="#2F2E41"/>
<path d="M158.991 73.2373L130.897 76.161L123.995 82.9549L113.014 86.5263C111.632 86.9759 110.42 87.8352 109.541 88.9894C108.663 90.1436 108.159 91.5375 108.097 92.9848C107.811 99.6555 107.246 110.73 106.65 110.614C105.797 110.449 107.502 114.599 108.695 114.358C109.889 114.117 111.131 116.823 110.305 117.304C109.48 117.785 110.855 121.901 110.855 121.901L119.454 120.521C120.53 112.434 124.462 103.909 119.828 97.9588C127.675 95.4224 134.588 93.3013 139.671 91.9941L142.42 90.8578L148.128 151.267L156.199 151.399C158.427 139.986 159.545 129.714 157.805 122.387C157.805 122.387 158.055 100.374 159.009 100.614C159.964 100.855 159.155 97.9873 159.155 97.9873C159.155 97.9873 158.319 95.545 159.346 94.5317C160.373 93.5185 159.732 87.5593 159.732 87.5593C161.429 81.9197 160.918 77.2632 158.991 73.2373Z" fill="#2F2E41"/>
<path d="M162.311 60.9108C162.589 59.6679 162.867 58.4248 163.145 57.1817C163.927 53.7007 164.707 50.2212 165.486 46.7434C166.509 42.1865 167.536 37.471 166.656 32.8854C166.524 32.1958 166.34 31.5172 166.104 30.8556C164.786 27.1019 161.877 23.8126 158.019 23.1199L157.388 20.7802L148.779 19.7246L147.15 21.963C143.643 21.6836 141.561 25.1622 139.141 28.0287L138.18 28.9864C137.479 29.8593 137.336 33.1386 136.898 34.0941C134.953 38.3429 137.634 34.2138 137.539 38.8826C137.441 43.7206 136.486 48.4153 136.388 53.253C136.378 53.7721 135.256 54.1679 135.063 55.0779C134.959 55.5691 135.828 56.4803 135.696 57.0295C135.584 57.4982 136.145 59.382 136.025 59.8664C135.466 62.1139 134.2 62.9988 134.145 64.1069C134.12 64.5334 134.056 64.9568 133.954 65.3719C133.885 65.6664 132.915 65.3134 132.82 65.6126C132.661 66.1152 133.36 67.2726 133.168 67.7757C132.798 68.7494 133.047 70.469 132.82 71.3588C131.867 75.0942 132.233 73.6118 130.168 76.8712C135.454 78.463 137.737 83.7939 143.175 84.7535C143.42 83.9644 143.664 83.1733 143.908 82.3801C144.628 82.4263 145.354 82.4693 146.079 82.5089C146.119 83.1975 146.16 83.8865 146.201 84.5711C151.713 84.9251 157.241 84.955 162.757 84.6609C162.572 84.1088 162.424 83.545 162.315 82.9734C162.012 81.3838 162.663 79.6598 162.732 78.0864C162.781 76.9208 162.225 75.9303 162.241 74.6749C162.245 74.4427 163.555 74.2472 163.551 74.0106C163.53 71.9237 162.339 69.1317 162.732 67.0816C163.141 64.9745 161.844 63.0061 162.311 60.9115L162.311 60.9108Z" fill="#3F3D56"/>
<path d="M122.04 10.5044C121.31 10.5052 120.611 10.7944 120.094 11.3086C119.578 11.8227 119.288 12.5197 119.287 13.2468V29.7714C119.288 30.4985 119.578 31.1956 120.094 31.7097C120.611 32.2238 121.31 32.513 122.04 32.5139H127.173C127.903 32.513 128.602 32.2238 129.118 31.7097C129.635 31.1956 129.925 30.4985 129.926 29.7714C130.744 21.4683 130.443 16.9872 129.926 13.2468C129.925 12.5197 129.635 11.8227 129.118 11.3086C128.602 10.7944 127.903 10.5052 127.173 10.5044L122.04 10.5044Z" fill="#D11A22"/>
<path d="M121.4 10.5044C120.67 10.5052 119.97 10.7944 119.454 11.3086C118.938 11.8227 118.647 12.5197 118.647 13.2468C118.352 19.7424 118.147 25.9372 118.647 29.7714C118.647 30.4985 118.938 31.1956 119.454 31.7097C119.97 32.2238 120.67 32.513 121.4 32.5139H126.532C127.262 32.513 127.962 32.2238 128.478 31.7097C128.994 31.1956 129.284 30.4985 129.285 29.7714V13.2468C129.284 12.5198 128.994 11.8227 128.478 11.3086C127.962 10.7945 127.262 10.5053 126.532 10.5044L121.4 10.5044Z" fill="#3F3D56"/>
<path d="M134.612 34.5541C134.612 34.5541 139.466 34.358 136.995 36.4457C135.387 37.8043 131.767 47.2623 128.005 48.4065C127.563 48.541 127.097 48.5824 126.637 48.5281C126.177 48.4738 125.734 48.3249 125.335 48.0909C124.936 47.857 124.59 47.543 124.319 47.169C124.048 46.7949 123.858 46.3689 123.761 45.9179L120.352 30.0874L124.805 29.4126L127.52 41.9418L134.612 34.5541Z" fill="#A0616A"/>
<path d="M122.826 31.2439C124.566 31.2439 125.976 29.8391 125.976 28.1061C125.976 26.3731 124.566 24.9683 122.826 24.9683C121.086 24.9683 119.676 26.3731 119.676 28.1061C119.676 29.8391 121.086 31.2439 122.826 31.2439Z" fill="#A0616A"/>
<path d="M141.197 25.9038C144.083 28.0624 144.932 35.1411 143.119 38.2491C139.653 44.1902 132.819 48.7643 132.528 48.1291C132.129 47.2592 131.433 48.4273 131.457 48.8097C131.48 49.1921 130.164 49.0781 130.317 49.4828C130.471 49.8874 129.432 49.9753 128.98 50.21C128.98 50.21 124.851 50.2795 123.548 48.4024C122.245 46.5253 122.071 43.9313 122.071 43.9313L120.453 42.0357L129.028 37.0425L128.322 40.4128L132.599 35.4512L133.505 33.4606L134.949 32.7259L135.428 31.226L136.759 30.6262L142.026 24.5171L141.197 25.9038Z" fill="#3F3D56"/>
<path d="M164.892 84.0551C165.252 83.8186 165.555 83.5063 165.781 83.1403C166.006 82.7744 166.149 82.3636 166.198 81.9368C166.247 81.5101 166.201 81.0779 166.065 80.6706C165.928 80.2633 165.703 79.8908 165.406 79.5794L166.012 52.7368L160.687 53.5619L161.063 79.5975C160.571 80.1291 160.291 80.8221 160.278 81.545C160.264 82.268 160.518 82.9709 160.99 83.5203C161.461 84.0698 162.119 84.4277 162.839 84.5262C163.558 84.6248 164.288 84.4571 164.892 84.0551Z" fill="#A0616A"/>
<path d="M165.122 29.856C165.122 29.856 164.769 30.1219 166.58 32.871C166.94 33.4162 167.183 35.6145 167.353 38.4831C167.409 39.4177 167.943 40.0742 167.985 41.1171C168.02 42.0022 167.564 43.2632 167.591 44.181C167.606 44.6706 167.972 45.0966 167.985 45.5864C167.99 45.7905 167.642 46.0597 167.647 46.2632C167.652 46.4826 167.657 46.7013 167.662 46.9194C167.787 52.3716 167.813 57.2958 167.937 57.2127C168.2 57.0353 167.546 57.9519 167.873 58.105C168.2 58.2581 167.594 59.0174 167.75 59.411C167.941 59.8905 167.704 60.4195 167.554 60.9009C167.122 62.2908 167.029 63.4843 166.653 64.1446C167.099 64.3995 167.447 64.7951 167.643 65.2689C167.838 65.7427 167.87 66.2678 167.733 66.7616L160.228 65.4101C159.313 63.95 159.446 62.4177 160.069 62.1506L159.883 57.3995L157.746 32.8191L164.01 30.0333L165.122 29.856Z" fill="#3F3D56"/>
<path d="M118.545 14.7427C118.437 14.7427 118.35 14.7938 118.35 14.8567V15.7687C118.35 15.8316 118.437 15.8827 118.545 15.8827C118.653 15.8827 118.74 15.8316 118.74 15.7687V14.8567C118.74 14.7938 118.653 14.7427 118.545 14.7427Z" fill="#3F3D56"/>
<path d="M118.545 17.1592C118.437 17.1592 118.35 17.2103 118.35 17.2732V19.0402C118.35 19.1031 118.437 19.1542 118.545 19.1542C118.653 19.1542 118.74 19.1031 118.74 19.0402V17.2732C118.74 17.2103 118.653 17.1592 118.545 17.1592Z" fill="#3F3D56"/>
<path d="M129.442 17.4785C129.384 17.4851 129.332 17.5137 129.295 17.5584C129.259 17.6031 129.241 17.6602 129.246 17.7176V21.4233C129.24 21.4522 129.241 21.4821 129.248 21.5107C129.255 21.5394 129.268 21.5662 129.287 21.5891C129.306 21.612 129.329 21.6304 129.356 21.6431C129.383 21.6558 129.412 21.6623 129.442 21.6623C129.471 21.6623 129.501 21.6558 129.527 21.6431C129.554 21.6304 129.578 21.612 129.596 21.5891C129.615 21.5662 129.628 21.5394 129.636 21.5107C129.643 21.4821 129.643 21.4522 129.637 21.4233V17.7176C129.642 17.6602 129.625 17.6031 129.588 17.5584C129.552 17.5137 129.499 17.4851 129.442 17.4785Z" fill="#3F3D56"/>
<path d="M118.225 19.9868C118.117 19.9868 118.029 20.0379 118.029 20.1008V21.8678C118.029 21.9307 118.117 21.9818 118.225 21.9818C118.332 21.9818 118.42 21.9307 118.42 21.8678V20.1008C118.42 20.0379 118.332 19.9868 118.225 19.9868Z" fill="#3F3D56"/>
<path d="M152.481 18.8957C156.924 18.8957 160.526 15.3077 160.526 10.8817C160.526 6.45568 156.924 2.86768 152.481 2.86768C148.038 2.86768 144.436 6.45568 144.436 10.8817C144.436 15.3077 148.038 18.8957 152.481 18.8957Z" fill="#A0616A"/>
<path d="M161.465 14.5642C160.837 15.8163 160.239 16.5994 159.153 17.2993C159.098 17.1398 159.053 16.9767 159.019 16.8113C158.904 17.0687 158.791 17.3255 158.673 17.5834C157.986 17.9655 158.727 17.376 157.603 17.8032L156.657 16.1861C156.398 15.4185 156.765 14.5825 157.231 13.9182C157.699 13.2566 158.281 12.65 158.534 11.8809C158.787 11.1117 158.562 10.0927 157.803 9.80644C157.055 9.52054 156.229 10.0629 155.433 9.9687C154.516 9.86088 153.891 8.90445 153.842 7.98431C153.792 7.06416 154.169 6.18067 154.537 5.33864C153.426 6.13198 149.983 7.55331 148.109 7.62122C148.059 7.03891 147.789 6.49731 147.353 6.10548C147.429 6.63562 147.3 7.17477 146.991 7.61302C145.156 7.5193 144.811 10.174 143.864 9.21271C144.159 9.06448 143.069 5.76531 143.365 5.61708C143.138 4.99595 142.91 4.37663 142.684 3.75911C143.105 3.86495 143.53 3.97293 143.954 4.07819C143.981 3.85239 144.05 3.63359 144.158 3.43323C144.46 3.26146 144.782 3.12611 145.116 3.03002C145.224 3.00134 145.335 2.97208 145.446 2.94825C145.612 2.91157 145.779 2.88441 145.947 2.86689C145.703 2.72599 145.457 2.58836 145.213 2.44476C145.184 2.42828 145.157 2.41122 145.128 2.39475C145.471 2.15956 145.83 1.94743 146.202 1.75975C147.77 0.942802 149.397 0.110369 151.164 0.00854059C152.312 -0.0642757 153.45 0.26206 154.384 0.931865C155.189 1.50784 156.164 1.79996 157.155 1.76201C157.636 1.75836 158.113 1.86403 158.547 2.07101C158.348 2.27075 158.13 2.45119 157.897 2.60991C158.407 2.62311 158.914 2.6369 159.424 2.65283C159.996 3.17109 160.478 3.77957 160.852 4.45386C162.64 7.49735 163.049 11.4113 161.465 14.5642Z" fill="#2F2E41"/>
<path d="M135.627 139.417C135.566 139.017 135.41 138.637 135.172 138.309C134.934 137.981 134.621 137.715 134.258 137.532C130.857 135.798 127.293 134.402 123.616 133.366L120.176 137.884L122.719 133.117C113.308 130.602 103.416 130.462 93.9374 132.71L95.2603 136.344L93.0991 132.918C88.831 133.987 84.6984 135.535 80.7806 137.532C80.4198 137.716 80.1079 137.982 79.8701 138.309C79.6323 138.636 79.4754 139.014 79.4123 139.413C79.3491 139.812 79.3815 140.22 79.5067 140.604C79.6319 140.988 79.8464 141.337 80.1328 141.622C81.6201 141.713 82.6023 143.09 83.5826 145.059C83.9583 145.428 84.4393 145.672 84.9599 145.759C85.4805 145.845 86.0151 145.769 86.4906 145.541C93.0605 142.428 100.244 140.813 107.52 140.813C114.795 140.813 121.979 142.428 128.549 145.541C129.024 145.769 129.559 145.845 130.079 145.759C130.6 145.673 131.081 145.428 131.456 145.059C132.045 143.467 133.26 142.526 134.906 141.622C135.194 141.338 135.41 140.99 135.535 140.607C135.661 140.223 135.692 139.815 135.627 139.417Z" fill="#D11A22"/>
<path d="M116.621 154.974C115.867 154.857 115.109 154.754 114.347 154.666L111.358 159.403L113.585 154.585C109.967 154.217 106.322 154.178 102.696 154.471L104.976 159.403L101.907 154.539C100.736 154.65 99.5734 154.795 98.4194 154.974C98.0242 155.033 97.6536 155.201 97.3501 155.459C97.0466 155.718 96.8224 156.057 96.7035 156.437C96.5768 156.82 96.5594 157.23 96.6534 157.622C96.7475 158.015 96.9491 158.373 97.2359 158.658C98.47 159.862 99.8307 161.534 102.067 163.47C102.285 163.69 102.549 163.861 102.839 163.969C103.13 164.078 103.441 164.123 103.751 164.101C104.99 164.009 106.258 163.963 107.52 163.963C108.782 163.963 110.05 164.009 111.289 164.101C111.599 164.123 111.91 164.078 112.201 163.969C112.491 163.86 112.755 163.69 112.973 163.47C115.283 161.506 116.45 159.706 117.804 158.658C118.091 158.373 118.293 158.015 118.387 157.622C118.481 157.23 118.463 156.82 118.337 156.437C118.218 156.057 117.994 155.718 117.69 155.459C117.387 155.201 117.016 155.033 116.621 154.974Z" fill="#D11A22"/>
</g>
<defs>
<clipPath id="clip0_712_5280">
<rect width="230" height="165" fill="white"/>
</clipPath>
</defs>
</svg>
