<svg width="19" height="24" viewBox="0 0 19 24" fill="none" xmlns="http://www.w3.org/2000/svg">
<path fill-rule="evenodd" clip-rule="evenodd" d="M12.6284 21.163C15.2269 17.8495 18.5 13.0354 18.5 9.80978C18.5 4.46102 14.4706 0.125 9.5 0.125C4.52944 0.125 0.5 4.46102 0.5 9.80978C0.5 13.0354 3.77313 17.8495 6.37161 21.163C7.72728 22.8918 8.40511 23.7562 9.5 23.7562C10.5949 23.7562 11.2727 22.8918 12.6284 21.163ZM7.84662 7.40338C7.51712 7.07387 6.98288 7.07387 6.65338 7.40338C6.32387 7.73288 6.32387 8.26712 6.65338 8.59662L8.44324 10.3865L6.65338 12.1763C6.32387 12.5059 6.32387 13.0401 6.65338 13.3696C6.98288 13.6991 7.51712 13.6991 7.84662 13.3696L9.63649 11.5797L11.4263 13.3696C11.7559 13.6991 12.2901 13.6991 12.6196 13.3696C12.9491 13.0401 12.9491 12.5059 12.6196 12.1764L10.8297 10.3865L12.6196 8.59662C12.9491 8.26712 12.9491 7.73288 12.6196 7.40338C12.2901 7.07387 11.7559 7.07387 11.4263 7.40338L9.63649 9.19324L7.84662 7.40338Z" fill="#F8F9FA"/>
</svg>
