<svg width="27" height="27" viewBox="0 0 27 27" fill="none" xmlns="http://www.w3.org/2000/svg">
<path fill-rule="evenodd" clip-rule="evenodd" d="M12.4875 1.40625C8.66747 1.40625 5.71189 4.75428 6.18571 8.54478L6.27498 9.25899C6.40562 10.3041 6.02387 11.3479 5.24986 12.0622C3.64597 13.5422 3.20036 15.8979 4.15285 17.8615L4.26912 18.1012C5.10853 19.8318 6.81298 20.9651 8.7157 21.0835L8.9275 21.4466C10.0669 23.3998 11.8422 24.4688 13.7063 24.4688C15.5705 24.4688 17.3457 23.3998 18.4851 21.4466L18.7003 21.0778C20.2985 20.9514 21.7558 20.0827 22.6249 18.717C23.9548 16.6274 23.6026 13.8861 21.7877 12.2006L21.7383 12.1547C20.9074 11.3831 20.4984 10.259 20.639 9.13389L20.7117 8.55234C21.186 4.75782 18.2273 1.40625 14.4033 1.40625H12.4875ZM9.19032 19.4062C9.20047 19.4061 9.21061 19.4061 9.22074 19.4062H18.1919C18.202 19.4061 18.2122 19.4061 18.2223 19.4062H18.2951C19.4728 19.4062 20.569 18.8046 21.2013 17.811C22.0939 16.4084 21.8575 14.5684 20.6393 13.4371L20.5899 13.3912C19.3614 12.2503 18.7566 10.5882 18.9645 8.92458L19.0372 8.34303C19.3856 5.55571 17.2123 3.09375 14.4033 3.09375H12.4875C9.6825 3.09375 7.51226 5.55216 7.86018 8.33547L7.94945 9.04968C8.14763 10.6351 7.5685 12.2188 6.39427 13.3023C5.33704 14.2779 5.04331 15.8307 5.67115 17.1251L5.78742 17.3648C6.39309 18.6134 7.65888 19.4062 9.04665 19.4062H9.19032ZM13.7063 22.7812C12.67 22.7812 11.5644 22.2611 10.7102 21.0938H16.7025C15.8482 22.2611 14.7426 22.7812 13.7063 22.7812Z" fill="#FAFAFA"/>
</svg>
