<svg width="19" height="24" viewBox="0 0 19 24" fill="none" xmlns="http://www.w3.org/2000/svg">
<path fill-rule="evenodd" clip-rule="evenodd" d="M12.6284 21.163C15.2269 17.8495 18.5 13.0354 18.5 9.80978C18.5 4.46102 14.4706 0.125 9.5 0.125C4.52944 0.125 0.5 4.46102 0.5 9.80978C0.5 13.0354 3.77313 17.8495 6.37161 21.163C7.72728 22.8918 8.40511 23.7562 9.5 23.7562C10.5949 23.7562 11.2727 22.8918 12.6284 21.163ZM13.532 8.52939C13.8244 8.16654 13.7672 7.63537 13.4044 7.343C13.0415 7.05062 12.5104 7.10775 12.218 7.47061L9.9438 10.293C9.47684 10.8725 9.1822 11.2349 8.93699 11.4639C8.82176 11.5716 8.74815 11.6194 8.70585 11.6406C8.67436 11.6564 8.66311 11.6563 8.65707 11.6563H8.65543C8.64939 11.6563 8.63814 11.6564 8.60665 11.6406C8.56435 11.6194 8.49074 11.5716 8.37551 11.4639C8.1303 11.2349 7.83566 10.8725 7.36869 10.293L6.782 9.56488C6.48963 9.20202 5.95846 9.14489 5.59561 9.43727C5.23275 9.72964 5.17562 10.2608 5.468 10.6237L6.09133 11.3973C6.51041 11.9174 6.88013 12.3764 7.22373 12.6972C7.59263 13.0418 8.05129 13.3438 8.65625 13.3438C9.2612 13.3438 9.71987 13.0418 10.0888 12.6973C10.4324 12.3764 10.8021 11.9175 11.2212 11.3973L13.532 8.52939Z" fill="white"/>
</svg>
