<svg width="22" height="20" viewBox="0 0 22 20" fill="none" xmlns="http://www.w3.org/2000/svg">
<path d="M15 5C15 3.114 15 2.172 14.414 1.586C13.828 1 12.886 1 11 1C9.114 1 8.172 1 7.586 1.586C7 2.172 7 3.114 7 5M1 12C1 9.191 1 7.787 1.674 6.778C1.96591 6.34106 2.34106 5.96591 2.778 5.674C3.787 5 5.19 5 8 5H14C16.809 5 18.213 5 19.222 5.674C19.6589 5.96591 20.0341 6.34106 20.326 6.778C21 7.787 21 9.19 21 12C21 14.81 21 16.213 20.326 17.222C20.0341 17.6589 19.6589 18.0341 19.222 18.326C18.213 19 16.81 19 14 19H8C5.191 19 3.787 19 2.778 18.326C2.34106 18.0341 1.96591 17.6589 1.674 17.222C1 16.213 1 14.81 1 12Z" stroke="#D11A22" stroke-width="1.5" stroke-linecap="round" stroke-linejoin="round"/>
<path d="M5 9L5.652 9.202C9.13777 10.2672 12.8622 10.2672 16.348 9.202L17 9M11 10V12" stroke="#D11A22" stroke-width="1.5" stroke-linecap="round" stroke-linejoin="round"/>
</svg>
