<svg width="19" height="21" viewBox="0 0 19 21" fill="none" xmlns="http://www.w3.org/2000/svg">
<path d="M17.9682 11.3112V11.477M17.9682 11.477C17.9653 11.0682 17.8172 10.6737 17.5504 10.3639C17.2836 10.0541 16.9154 9.84913 16.5116 9.78554L15.3549 9.59579V10.4535M17.9682 11.477V13.5978C17.9682 15.4608 17.9682 16.3923 17.6798 17.134C17.4597 17.6973 17.1237 18.208 16.6934 18.633C16.2632 19.058 15.7483 19.3877 15.1824 19.6008C14.431 19.8854 13.4861 19.8854 11.5992 19.8854C10.6092 19.8854 10.1137 19.8854 9.65374 19.7857C8.95233 19.6339 8.29924 19.3113 7.75241 18.8466C7.39495 18.5428 7.09786 18.1518 6.50466 17.3707L3.88745 13.9246C3.69226 13.6682 3.58889 13.3536 3.59393 13.0314C3.59897 12.7092 3.71213 12.398 3.91524 12.1478C4.04563 11.9882 4.20786 11.8576 4.39158 11.7642C4.57531 11.6708 4.77648 11.6167 4.98227 11.6055C5.18805 11.5942 5.39393 11.6259 5.58675 11.6987C5.77958 11.7715 5.95511 11.8836 6.10216 12.028L7.42657 13.4224V5.03125C7.42657 4.65 7.57802 4.28437 7.84761 4.01478C8.11719 3.7452 8.48282 3.59375 8.86407 3.59375C9.24532 3.59375 9.61095 3.7452 9.88054 4.01478C10.1501 4.28437 10.3016 4.65 10.3016 5.03125V7.88133H10.9983C11.9604 7.88133 12.7415 8.648 12.7415 9.59675M10.3016 7.88037V10.4525M12.7415 10.4525V9.59483V8.73712H13.6126C14.5748 8.73712 15.3549 9.50571 15.3549 10.4525V11.3102" stroke="#D11A22" stroke-width="1.4375" stroke-linecap="round" stroke-linejoin="round"/>
<path d="M4.55208 6.46875H3.76242C2.32875 6.46875 1.61 6.46875 1.16533 6.04708C0.71875 5.62733 0.71875 4.94979 0.71875 3.59375C0.71875 2.23771 0.71875 1.56113 1.16437 1.14042C1.61 0.719708 2.32875 0.71875 3.76242 0.71875H14.9241C16.3597 0.71875 17.0775 0.71875 17.5231 1.14042C17.9687 1.56017 17.9687 2.23771 17.9687 3.59375C17.9687 4.94979 17.9687 5.62637 17.5231 6.04708C17.0775 6.46779 16.3587 6.46875 14.9241 6.46875H13.6562" stroke="#D11A22" stroke-width="1.4375" stroke-linecap="round" stroke-linejoin="round"/>
</svg>
