<svg width="23" height="24" viewBox="0 0 23 24" fill="none" xmlns="http://www.w3.org/2000/svg">
<path d="M0.468683 13.9801C0.215905 13.8051 0.0654049 13.5671 0.0171826 13.2661C-0.0310396 12.9651 0.0222382 12.6781 0.177016 12.4051L3.73535 6.68846C4.16313 6.00791 4.77096 5.64352 5.55885 5.59529C6.34674 5.54707 6.99307 5.82396 7.49785 6.42596L8.92702 8.08846L11.6978 3.59679C12.1451 2.85791 12.7918 2.48379 13.638 2.47446C14.4842 2.46513 15.1403 2.81979 15.6062 3.53846L17.0937 5.75513L20.3603 0.563461C20.5353 0.271795 20.7932 0.0921279 21.1338 0.0244612C21.4745 -0.0432055 21.7806 0.0295168 22.052 0.242628C22.3048 0.417628 22.4557 0.656017 22.5047 0.957795C22.5537 1.25957 22.5 1.54618 22.3437 1.81763L19.077 7.0093C18.6298 7.72874 17.9835 8.08846 17.138 8.08846C16.2926 8.08846 15.6361 7.73846 15.1687 7.03846L13.6812 4.8218L10.9103 9.31346C10.502 9.99402 9.90429 10.3635 9.11718 10.4218C8.33007 10.4801 7.68335 10.2079 7.17702 9.60513L5.71868 7.91346L2.16035 13.6593C1.98535 13.951 1.72752 14.131 1.38685 14.1995C1.04618 14.2679 0.740127 14.1948 0.468683 13.9801ZM15.3437 19.3468C16.1604 19.3468 16.8506 19.0649 17.4145 18.501C17.9784 17.9371 18.2604 17.2468 18.2604 16.4301C18.2604 15.6135 17.9784 14.9232 17.4145 14.3593C16.8506 13.7954 16.1604 13.5135 15.3437 13.5135C14.527 13.5135 13.8367 13.7954 13.2729 14.3593C12.709 14.9232 12.427 15.6135 12.427 16.4301C12.427 17.2468 12.709 17.9371 13.2729 18.501C13.8367 19.0649 14.527 19.3468 15.3437 19.3468ZM15.3437 21.6801C13.8853 21.6801 12.6456 21.1699 11.6244 20.1495C10.6031 19.129 10.0929 17.8892 10.0937 16.4301C10.0945 14.971 10.6051 13.7316 11.6255 12.712C12.646 11.6923 13.8853 11.1817 15.3437 11.1801C16.802 11.1786 18.0418 11.6892 19.063 12.712C20.0842 13.7347 20.5945 14.9741 20.5937 16.4301C20.5937 16.9357 20.5256 17.4269 20.3895 17.9036C20.2534 18.3804 20.0492 18.8226 19.777 19.2301L22.1103 21.5635C22.3242 21.7774 22.4312 22.0496 22.4312 22.3801C22.4312 22.7107 22.3242 22.9829 22.1103 23.1968C21.8965 23.4107 21.6242 23.5176 21.2937 23.5176C20.9631 23.5176 20.6909 23.4107 20.477 23.1968L18.1437 20.8635C17.7353 21.1357 17.2932 21.3399 16.8172 21.476C16.3412 21.6121 15.85 21.6801 15.3437 21.6801Z" fill="white"/>
</svg>
