<svg width="70" height="70" viewBox="0 0 70 70" fill="none" xmlns="http://www.w3.org/2000/svg">
<g clip-path="url(#clip0_2216_7828)">
<path d="M55.4166 0H14.5834C6.53324 0.00970703 0.00970703 6.53324 0 14.5834V55.4168C0.00970703 63.4668 6.53324 69.9904 14.5834 70H55.4168C63.4668 69.9904 69.9904 63.4668 70 55.4166V14.5834C69.9904 6.53324 63.4668 0.00970703 55.4166 0ZM58.3334 23.5638L31.3425 50.5546C29.0649 52.8332 25.3714 52.8339 23.0929 50.5563C23.0923 50.5557 23.0918 50.5552 23.0912 50.5546L11.6666 39.133C10.5253 37.9917 10.5253 36.1413 11.6666 35.0001C12.8079 33.8589 14.6583 33.8588 15.7995 35.0001L27.2211 46.4218L54.2149 19.4309C55.3562 18.2937 57.2033 18.2969 58.3405 19.4381C59.4779 20.5795 59.4746 22.4265 58.3334 23.5638Z" fill="#2ECC71"/>
</g>
<defs>
<clipPath id="clip0_2216_7828">
<rect width="70" height="70" fill="white"/>
</clipPath>
</defs>
</svg>
