<svg width="18" height="18" viewBox="0 0 18 18" fill="none" xmlns="http://www.w3.org/2000/svg">
<path d="M9.59375 6C9.59375 5.67208 9.32792 5.40625 9 5.40625C8.67208 5.40625 8.40625 5.67208 8.40625 6L9 6L9.59375 6ZM11.25 10.3438C11.5779 10.3438 11.8437 10.0779 11.8437 9.75C11.8437 9.42208 11.5779 9.15625 11.25 9.15625V9.75V10.3438ZM1.87909 1.97386C1.62303 2.17871 1.58151 2.55235 1.78636 2.80841C1.99121 3.06447 2.36485 3.10599 2.62091 2.90114L2.25 2.4375L1.87909 1.97386ZM4.49591 1.40114C4.75197 1.19629 4.79349 0.822649 4.58864 0.566587C4.38379 0.310526 4.01015 0.26901 3.75409 0.473859L4.125 0.9375L4.49591 1.40114ZM15.3791 2.90114C15.6351 3.10599 16.0088 3.06447 16.2136 2.80841C16.4185 2.55235 16.377 2.17871 16.1209 1.97386L15.75 2.4375L15.3791 2.90114ZM14.2459 0.473859C13.9898 0.26901 13.6162 0.310526 13.4114 0.566587C13.2065 0.822649 13.248 1.19629 13.5041 1.40114L13.875 0.9375L14.2459 0.473859ZM9 6L8.40625 6L8.40625 8.625L9 8.625L9.59375 8.625L9.59375 6L9 6ZM16.5 9H15.9062C15.9062 12.8142 12.8142 15.9062 9 15.9062V16.5V17.0938C13.4701 17.0938 17.0937 13.4701 17.0937 9H16.5ZM9 16.5V15.9062C5.18578 15.9062 2.09375 12.8142 2.09375 9H1.5H0.90625C0.90625 13.4701 4.52994 17.0938 9 17.0938V16.5ZM1.5 9H2.09375C2.09375 5.18578 5.18578 2.09375 9 2.09375V1.5V0.90625C4.52994 0.90625 0.90625 4.52995 0.90625 9H1.5ZM9 1.5V2.09375C12.8142 2.09375 15.9062 5.18578 15.9062 9H16.5H17.0937C17.0937 4.52995 13.4701 0.90625 9 0.90625V1.5ZM2.25 2.4375L2.62091 2.90114L4.49591 1.40114L4.125 0.9375L3.75409 0.473859L1.87909 1.97386L2.25 2.4375ZM15.75 2.4375L16.1209 1.97386L14.2459 0.473859L13.875 0.9375L13.5041 1.40114L15.3791 2.90114L15.75 2.4375ZM10.125 9.75V10.3438H11.25V9.75V9.15625H10.125V9.75ZM9 8.625L8.40625 8.625C8.40625 9.57424 9.17576 10.3438 10.125 10.3438V9.75V9.15625C9.8316 9.15625 9.59375 8.9184 9.59375 8.625L9 8.625Z" fill="#2E2E2E" fill-opacity="0.5"/>
</svg>
