<svg width="230" height="165" viewBox="0 0 230 165" fill="none" xmlns="http://www.w3.org/2000/svg">
<g clip-path="url(#clip0_712_5753)">
<path d="M23.2152 151.395C24.1701 151.786 25.1953 151.883 26.1921 151.679C27.1888 151.475 28.1236 150.976 28.9063 150.23C30.8995 148.285 31.5246 145.082 32.033 142.116L33.537 133.341L30.3882 135.861C28.1236 137.674 25.8081 139.544 24.2402 142.169C22.6724 144.795 21.9884 148.378 23.2477 151.219" fill="#E6E6E6"/>
<path d="M23.7013 162.63C23.3049 159.274 22.8971 155.874 23.1758 152.482C23.4228 149.469 24.2136 146.527 25.8235 144.113C26.678 142.835 27.7178 141.74 28.8961 140.877C29.2033 140.651 29.4861 141.217 29.1802 141.442C27.1413 142.939 25.5643 145.151 24.6765 147.758C23.696 150.657 23.5386 153.817 23.7075 156.896C23.8095 158.758 24.0265 160.608 24.2443 162.456C24.2615 162.539 24.2508 162.627 24.2143 162.702C24.1778 162.777 24.1182 162.833 24.0477 162.858C23.9757 162.881 23.899 162.869 23.8342 162.827C23.7693 162.784 23.7217 162.713 23.7014 162.63L23.7013 162.63Z" fill="#F2F2F2"/>
<path d="M26.5547 157.245C26.9641 157.968 27.527 158.557 28.1891 158.954C28.8512 159.352 29.5902 159.544 30.3348 159.513C32.2489 159.408 33.844 157.855 35.2797 156.381L39.5273 152.022L36.7162 151.866C34.6946 151.753 32.6208 151.647 30.6953 152.373C28.7698 153.098 26.994 154.842 26.642 157.158" fill="#E6E6E6"/>
<path d="M22.5819 164.56C24.49 160.635 26.703 156.274 30.6577 154.88C31.7572 154.493 32.9101 154.355 34.0543 154.472C34.4149 154.508 34.3249 155.154 33.9649 155.118C32.0469 154.933 30.1327 155.522 28.5443 156.785C27.0159 157.994 25.8258 159.676 24.8186 161.459C24.2016 162.551 23.649 163.689 23.0963 164.826C22.9197 165.189 22.4033 164.927 22.5819 164.56Z" fill="#F2F2F2"/>
<path d="M214.388 156.068C213.833 156.646 213.159 157.048 212.432 157.235C211.704 157.423 210.947 157.389 210.234 157.138C208.407 156.467 207.206 154.493 206.142 152.641L202.994 147.165L205.746 147.848C207.725 148.34 209.754 148.854 211.456 150.128C213.158 151.401 214.491 153.614 214.322 155.958" fill="#E6E6E6"/>
<path d="M216.621 164.32C215.639 159.959 214.459 155.085 210.942 152.563C209.964 151.863 208.88 151.386 207.748 151.159C207.391 151.087 207.336 151.739 207.692 151.811C209.587 152.202 211.308 153.339 212.566 155.033C213.778 156.656 214.559 158.635 215.141 160.658C215.497 161.897 215.781 163.162 216.065 164.425C216.156 164.829 216.713 164.729 216.621 164.32Z" fill="#F2F2F2"/>
<path d="M177.954 100.459H113.621C113.108 100.459 112.615 100.221 112.252 99.7988C111.889 99.3766 111.684 98.8041 111.684 98.2069V72.9799C111.684 72.3828 111.889 71.8103 112.252 71.388C112.615 70.9658 113.108 70.7282 113.621 70.7275H177.954C178.468 70.7282 178.96 70.9658 179.324 71.388C179.687 71.8103 179.891 72.3828 179.892 72.9799V98.2069C179.891 98.8041 179.687 99.3766 179.324 99.7988C178.96 100.221 178.468 100.459 177.954 100.459Z" fill="#F1F1F1"/>
<path d="M138.812 77.4849H121.76V79.7373H138.812V77.4849Z" fill="#D11A22"/>
<path d="M161.29 80.1878C161.932 80.1878 162.452 79.5827 162.452 78.8363C162.452 78.0899 161.932 77.4849 161.29 77.4849C160.647 77.4849 160.127 78.0899 160.127 78.8363C160.127 79.5827 160.647 80.1878 161.29 80.1878Z" fill="#D11A22"/>
<path d="M165.165 80.1878C165.807 80.1878 166.327 79.5827 166.327 78.8363C166.327 78.0899 165.807 77.4849 165.165 77.4849C164.522 77.4849 164.002 78.0899 164.002 78.8363C164.002 79.5827 164.522 80.1878 165.165 80.1878Z" fill="#D11A22"/>
<path d="M169.04 80.1878C169.682 80.1878 170.202 79.5827 170.202 78.8363C170.202 78.0899 169.682 77.4849 169.04 77.4849C168.397 77.4849 167.877 78.0899 167.877 78.8363C167.877 79.5827 168.397 80.1878 169.04 80.1878Z" fill="#D11A22"/>
<path d="M177.954 132.444H113.621C113.108 132.443 112.615 132.205 112.252 131.783C111.889 131.361 111.684 130.788 111.684 130.191V104.964C111.684 104.367 111.889 103.795 112.252 103.372C112.615 102.95 113.108 102.713 113.621 102.712H177.954C178.468 102.713 178.96 102.95 179.324 103.372C179.687 103.795 179.891 104.367 179.892 104.964V130.191C179.891 130.788 179.687 131.361 179.324 131.783C178.96 132.205 178.468 132.443 177.954 132.444Z" fill="#F1F1F1"/>
<path d="M138.812 109.469H121.76V111.721H138.812V109.469Z" fill="#D11A22"/>
<path d="M161.29 112.172C161.932 112.172 162.452 111.567 162.452 110.82C162.452 110.074 161.932 109.469 161.29 109.469C160.647 109.469 160.127 110.074 160.127 110.82C160.127 111.567 160.647 112.172 161.29 112.172Z" fill="#D11A22"/>
<path d="M165.165 112.172C165.807 112.172 166.327 111.567 166.327 110.82C166.327 110.074 165.807 109.469 165.165 109.469C164.522 109.469 164.002 110.074 164.002 110.82C164.002 111.567 164.522 112.172 165.165 112.172Z" fill="#D11A22"/>
<path d="M169.04 112.172C169.682 112.172 170.202 111.567 170.202 110.82C170.202 110.074 169.682 109.469 169.04 109.469C168.397 109.469 167.877 110.074 167.877 110.82C167.877 111.567 168.397 112.172 169.04 112.172Z" fill="#D11A22"/>
<path d="M177.954 164.428H113.621C113.108 164.427 112.615 164.189 112.252 163.767C111.889 163.345 111.684 162.772 111.684 162.175V136.948C111.684 136.351 111.889 135.779 112.252 135.356C112.615 134.934 113.108 134.696 113.621 134.696H177.954C178.468 134.696 178.96 134.934 179.324 135.356C179.687 135.779 179.891 136.351 179.892 136.948V162.175C179.891 162.772 179.687 163.345 179.324 163.767C178.96 164.189 178.468 164.427 177.954 164.428Z" fill="#F1F1F1"/>
<path d="M138.812 141.453H121.76V143.706H138.812V141.453Z" fill="#D11A22"/>
<path d="M161.29 144.156C161.932 144.156 162.452 143.551 162.452 142.805C162.452 142.058 161.932 141.453 161.29 141.453C160.647 141.453 160.127 142.058 160.127 142.805C160.127 143.551 160.647 144.156 161.29 144.156Z" fill="#D11A22"/>
<path d="M165.165 144.156C165.807 144.156 166.327 143.551 166.327 142.805C166.327 142.058 165.807 141.453 165.165 141.453C164.522 141.453 164.002 142.058 164.002 142.805C164.002 143.551 164.522 144.156 165.165 144.156Z" fill="#D11A22"/>
<path d="M169.04 144.156C169.682 144.156 170.202 143.551 170.202 142.805C170.202 142.058 169.682 141.453 169.04 141.453C168.397 141.453 167.877 142.058 167.877 142.805C167.877 143.551 168.397 144.156 169.04 144.156Z" fill="#D11A22"/>
<path d="M153.702 46.0936L153.631 46.0325L153.629 46.031C153.537 45.9518 153.433 45.8944 153.322 45.862C153.211 45.8297 153.096 45.823 152.983 45.8424C152.87 45.8618 152.761 45.9069 152.663 45.9752C152.565 46.0434 152.479 46.1334 152.411 46.2401L137.931 68.9028H136.337V68.4677C136.337 68.3604 136.301 68.2575 136.235 68.1816C136.17 68.1057 136.082 68.063 135.989 68.063H135.039C134.946 68.063 134.858 68.1057 134.793 68.1816C134.727 68.2575 134.691 68.3604 134.691 68.4677V68.9028H134.14V68.4677C134.14 68.3604 134.104 68.2575 134.039 68.1816C133.973 68.1057 133.885 68.063 133.792 68.063H132.842C132.749 68.063 132.661 68.1057 132.596 68.1816C132.53 68.2575 132.494 68.3604 132.494 68.4677V68.9028H131.945V68.4677C131.945 68.3604 131.909 68.2575 131.843 68.1816C131.778 68.1057 131.689 68.063 131.597 68.063H130.647C130.554 68.063 130.466 68.1057 130.4 68.1816C130.335 68.2575 130.298 68.3604 130.298 68.4677V68.9028H129.748V68.4677C129.748 68.3604 129.712 68.2575 129.646 68.1816C129.581 68.1057 129.493 68.063 129.4 68.063H128.45C128.357 68.063 128.269 68.1057 128.203 68.1816C128.138 68.2575 128.101 68.3604 128.101 68.4677V68.9028H127.553V68.4677C127.553 68.3604 127.516 68.2575 127.451 68.1816C127.386 68.1057 127.297 68.063 127.205 68.063H126.254C126.209 68.063 126.163 68.0735 126.121 68.0938C126.079 68.1142 126.041 68.144 126.008 68.1815C125.976 68.2191 125.95 68.2637 125.933 68.3129C125.915 68.362 125.906 68.4146 125.906 68.4677V68.9028H125.356V68.4677C125.356 68.3604 125.319 68.2575 125.254 68.1816C125.189 68.1057 125.1 68.063 125.008 68.063H124.058C123.965 68.063 123.877 68.1057 123.811 68.1816C123.746 68.2575 123.709 68.3604 123.709 68.4677V68.9028H123.159V68.4677C123.159 68.3604 123.123 68.2575 123.057 68.1816C122.992 68.1057 122.903 68.063 122.811 68.063H121.861C121.768 68.063 121.68 68.1057 121.614 68.1816C121.549 68.2575 121.512 68.3604 121.512 68.4677V68.9028H120.964V68.4677C120.964 68.3604 120.927 68.2575 120.862 68.1816C120.797 68.1057 120.708 68.063 120.616 68.063H119.665C119.573 68.063 119.484 68.1057 119.419 68.1816C119.354 68.2575 119.317 68.3604 119.317 68.4677V68.9028H118.767V68.4677C118.767 68.3604 118.73 68.2575 118.665 68.1816C118.6 68.1057 118.511 68.063 118.419 68.063H117.468C117.376 68.063 117.287 68.1057 117.222 68.1816C117.157 68.2575 117.12 68.3604 117.12 68.4677V68.9028H116.572V68.4677C116.572 68.3604 116.535 68.2575 116.47 68.1816C116.405 68.1057 116.316 68.063 116.224 68.063H115.273C115.181 68.063 115.092 68.1057 115.027 68.1816C114.962 68.2575 114.925 68.3604 114.925 68.4677V68.9028H114.236C114.121 68.9028 114.008 68.929 113.903 68.9798C113.797 69.0307 113.701 69.1052 113.62 69.1991C113.539 69.2931 113.475 69.4046 113.431 69.5274C113.388 69.6501 113.365 69.7817 113.365 69.9146V70.8798C113.365 71.0127 113.388 71.1442 113.431 71.267C113.475 71.3898 113.539 71.5013 113.62 71.5952C113.701 71.6892 113.797 71.7637 113.903 71.8146C114.008 71.8654 114.121 71.8916 114.236 71.8916H137.786C138.084 71.8915 138.373 71.772 138.605 71.5531C138.836 71.3343 138.995 71.0294 139.056 70.6899L139.065 70.6977L153.88 47.5112L153.882 47.5092C154.019 47.2937 154.077 47.0236 154.044 46.7581C154.01 46.4927 153.887 46.2537 153.702 46.0936Z" fill="#3F3D56"/>
<path d="M62.1855 155.834L65.1108 157.574L72.2768 145.287L67.9596 142.718L62.1855 155.834Z" fill="#FFB7B7"/>
<path d="M61.9281 154.28L67.689 157.707L67.6893 157.707C68.6629 158.286 69.3987 159.291 69.7348 160.501C70.0709 161.711 69.9798 163.026 69.4816 164.158L69.4205 164.297L59.9883 158.686L61.9281 154.28Z" fill="#2F2E41"/>
<path d="M95.9712 160.594H99.2574L100.821 145.861H95.9707L95.9712 160.594Z" fill="#FFB7B7"/>
<path d="M95.1328 159.347L101.604 159.347H101.605C102.698 159.347 103.747 159.852 104.521 160.751C105.294 161.65 105.729 162.87 105.729 164.141V164.297L95.133 164.297L95.1328 159.347Z" fill="#2F2E41"/>
<path d="M80.6007 40.4201C80.6007 40.4201 78.4002 38.4604 78.4002 43.2472L78.0527 59.0655L81.9326 74.0087L84.191 69.1622L83.2645 58.6616L80.6007 40.4201Z" fill="#2F2E41"/>
<path d="M104.14 83.6861C104.14 83.6861 106.692 98.1309 103.46 109.985L101.673 155.564L95.1241 154.971L92.8275 121.158L90.6161 104.35L86.023 119.674L70.8829 152.104L63.9082 145.776C63.9082 145.776 71.6372 121.262 77.3472 116.115L80.2109 78.2021L104.14 83.6861Z" fill="#2F2E41"/>
<path d="M102.929 16.5905C104.908 12.3839 103.578 7.10971 99.9587 4.81021C96.3398 2.5107 91.8024 4.05668 89.8241 8.26324C87.8459 12.4698 89.1759 17.744 92.7948 20.0435C96.4136 22.343 100.951 20.7971 102.929 16.5905Z" fill="#FFB7B7"/>
<path d="M95.8482 14.2682C96.7434 14.4036 97.4187 13.3389 97.7319 12.3548C98.0451 11.3706 98.2837 10.2249 99.062 9.69325C100.125 8.96694 101.486 9.84049 102.702 9.60086C104.075 9.33025 104.968 7.63858 105.038 6.02164C105.108 4.4047 104.554 2.84954 104.011 1.35873L103.821 3.21147C103.847 2.58353 103.733 1.95853 103.491 1.39626C103.249 0.833979 102.888 0.353232 102.44 0L102.685 2.7186C102.633 2.34353 102.517 1.98409 102.346 1.66091C102.174 1.33773 101.949 1.05717 101.683 0.835339C101.418 0.613506 101.118 0.454764 100.799 0.368224C100.481 0.281685 100.151 0.269051 99.8289 0.331047L99.8674 1.95089C98.2813 1.73167 96.6814 1.51213 95.0906 1.67915C93.4999 1.84616 91.898 2.4312 90.6923 3.64896C88.8889 5.47055 88.2302 8.47 88.4513 11.2353C88.6725 14.0006 89.6545 16.5983 90.678 19.1078C90.9355 19.7392 91.2917 20.4517 91.8888 20.5321C92.4253 20.6044 92.9163 20.083 93.0831 19.4859C93.2116 18.8732 93.2066 18.2329 93.0686 17.623C92.9177 16.6909 92.7275 15.7382 92.8693 14.8043C93.0112 13.8703 93.5893 12.9473 94.3992 12.8329C95.2092 12.7184 96.038 13.7946 95.6486 14.628L95.8482 14.2682Z" fill="#2F2E41"/>
<path d="M104.601 87.5488L79.6738 85.6793L81.5501 76.644L104.333 82.5639L104.601 87.5488Z" fill="#CBCBCB"/>
<path d="M89.2284 24.2654L90.7919 21.7422C90.7919 21.7422 92.5395 22.4325 97.2197 25.1405L97.5504 27.5045L105.674 85.5864L90.9078 84.846L86.8865 84.7465L85.5706 81.3177L83.9479 84.6739L80.021 84.5768L76.0254 81.8843L79.9631 67.8834L81.2371 55.0942L79.2682 43.0454C79.2682 43.0454 76.7907 31.9812 86.333 26.0155L89.2284 24.2654Z" fill="#2F2E41"/>
<path d="M122.511 68.2335C122.149 68.3403 121.772 68.3537 121.405 68.2726C121.039 68.1916 120.692 68.0181 120.389 67.7644C120.087 67.5107 119.836 67.1829 119.654 66.8042C119.472 66.4255 119.364 66.0051 119.337 65.5725L110.576 62.8449L114.1 59.2075L121.879 62.3554C122.508 62.3509 123.115 62.6145 123.588 63.0961C124.06 63.5777 124.363 64.2439 124.441 64.9684C124.519 65.693 124.366 66.4256 124.01 67.0273C123.654 67.6291 123.121 68.0583 122.511 68.2335Z" fill="#FFB7B7"/>
<path d="M118.587 66.6938C118.403 66.8104 118.2 66.8806 117.991 66.8999C117.781 66.9192 117.571 66.8871 117.373 66.8057L102.962 60.4477C99.4459 58.999 96.5024 56.1151 94.6788 52.3325L88.6689 39.8707C88.2469 39.3231 87.9219 38.6841 87.7126 37.9904C87.5032 37.2967 87.4136 36.5618 87.4489 35.8277C87.4842 35.0937 87.6436 34.375 87.9181 33.7127C88.1926 33.0504 88.5768 32.4575 89.0486 31.9679C89.5205 31.4784 90.0707 31.1018 90.6679 30.8597C91.2651 30.6176 91.8975 30.5148 92.5289 30.5571C93.1603 30.5995 93.7784 30.7861 94.3477 31.1064C94.917 31.4266 95.4263 31.8743 95.8466 32.4236L106.249 51.5884L119.34 60.5098C119.596 60.7055 119.795 60.988 119.909 61.3193C120.023 61.6505 120.047 62.0144 119.977 62.3617L119.326 65.5683C119.256 65.9122 119.098 66.2231 118.872 66.4596C118.785 66.5504 118.69 66.6291 118.587 66.6938Z" fill="#2F2E41"/>
<path d="M229.757 164.936H0.243386C0.178836 164.936 0.11693 164.907 0.071286 164.854C0.0256422 164.801 0 164.729 0 164.654C0 164.578 0.0256422 164.507 0.071286 164.453C0.11693 164.4 0.178836 164.371 0.243386 164.371H229.757C229.821 164.371 229.883 164.4 229.929 164.453C229.974 164.507 230 164.578 230 164.654C230 164.729 229.974 164.801 229.929 164.854C229.883 164.907 229.821 164.936 229.757 164.936Z" fill="#CBCBCB"/>
</g>
<defs>
<clipPath id="clip0_712_5753">
<rect width="230" height="165" fill="white"/>
</clipPath>
</defs>
</svg>
